<?xml version="1.0" standalone="no"?>
<!DOCTYPE svg PUBLIC "-//W3C//DTD SVG 20010904//EN"
 "http://www.w3.org/TR/2001/REC-SVG-20010904/DTD/svg10.dtd">
<svg version="1.0" xmlns="http://www.w3.org/2000/svg"
 width="1317.000000pt" height="1433.000000pt" viewBox="0 0 1317.000000 1433.000000"
 preserveAspectRatio="xMidYMid meet">

<g transform="translate(0.000000,1433.000000) scale(0.100000,-0.100000)"
fill="#000000" stroke="none">
<path d="M3505 14323 c-625 -51 -1121 -260 -1568 -657 -295 -263 -638 -718
-832 -1105 -582 -1161 -502 -2513 239 -4032 619 -1270 1718 -2647 3076 -3854
686 -610 1417 -1133 1800 -1289 35 -15 59 -21 52 -14 -17 17 -15 28 4 28 22 0
148 67 169 90 15 17 13 23 -38 101 -29 46 -73 117 -97 158 -38 63 -45 71 -56
57 -23 -32 -76 -212 -83 -279 l-6 -68 -85 66 c-47 37 -89 71 -94 75 -5 5 12
34 36 67 66 86 178 246 178 254 0 13 -72 129 -80 129 -12 0 -168 -242 -197
-307 -14 -32 -27 -60 -29 -62 -4 -5 -124 91 -124 100 0 5 10 13 21 20 20 10
21 9 16 -11 -10 -37 10 -10 116 156 139 221 133 205 101 259 -14 25 -29 47
-33 50 -4 2 -23 -32 -41 -76 -18 -44 -34 -78 -36 -77 -1 2 6 52 17 111 l19
108 -36 56 -36 57 -50 -115 c-27 -63 -52 -116 -55 -119 -3 -3 -3 82 1 189 l6
194 -32 50 -32 50 -22 -89 c-19 -81 -99 -262 -110 -252 -2 3 9 42 25 89 15 46
33 109 40 139 7 30 21 73 33 96 l21 41 -25 37 -25 36 -23 -62 c-32 -89 -157
-382 -191 -451 -16 -32 -35 -82 -42 -112 l-12 -55 -44 38 -43 37 70 145 c72
147 109 263 162 512 l21 98 -26 45 c-15 25 -30 45 -35 45 -4 0 -25 -39 -46
-87 -32 -76 -37 -97 -36 -155 1 -37 -3 -70 -8 -73 -6 -4 -10 23 -10 72 0 62 7
100 36 189 l35 111 -28 46 c-15 26 -31 47 -35 47 -4 0 -23 -27 -43 -60 -36
-60 -68 -90 -93 -90 -18 0 -7 70 29 187 l29 91 -42 67 c-50 78 -37 97 -118
-170 -32 -104 -64 -201 -70 -215 l-10 -25 4 25 c25 137 71 372 85 440 l17 85
-37 58 -38 58 -5 -33 c-3 -18 -17 -105 -31 -193 -15 -88 -35 -219 -44 -291
-16 -114 -26 -150 -75 -273 -32 -77 -66 -169 -75 -204 l-18 -62 -63 61 -63 61
39 59 c21 32 48 70 60 84 16 19 34 83 72 266 34 159 62 263 82 307 35 78 68
195 71 252 2 33 -6 53 -46 113 -26 39 -52 72 -56 72 -5 0 -9 -15 -9 -32 0 -18
-16 -134 -37 -258 l-37 -225 -43 -51 c-55 -67 -79 -74 -92 -28 -14 52 6 115
82 251 70 125 86 175 87 261 0 29 7 69 15 89 15 36 15 37 -26 100 l-42 64 -58
-228 c-32 -125 -73 -275 -92 -332 -34 -100 -34 -106 -21 -150 24 -80 20 -93
-78 -251 l-93 -149 -62 61 -62 61 25 30 c37 44 49 71 129 287 108 289 145 424
145 521 0 21 5 41 10 44 19 12 50 84 65 150 l16 66 -37 59 c-20 33 -41 57 -45
54 -5 -3 -9 -27 -9 -54 0 -41 -5 -55 -31 -85 -27 -31 -33 -46 -39 -114 -5 -43
-16 -109 -25 -147 -17 -66 -243 -744 -251 -754 -3 -2 -32 23 -66 57 l-61 61
33 78 c47 113 61 140 126 229 40 56 58 90 59 115 6 86 20 149 45 200 42 84 67
179 90 340 11 80 25 162 31 182 7 28 6 44 -2 60 -21 39 -82 128 -85 125 -2 -2
-15 -75 -29 -163 -66 -422 -134 -719 -201 -881 -20 -47 -39 -73 -85 -113 -32
-28 -59 -59 -59 -68 0 -19 -41 18 -132 121 l-61 68 30 32 c60 63 86 154 65
230 -8 29 -7 46 4 73 59 140 164 815 164 1052 0 35 5 72 10 82 8 15 2 32 -29
82 -39 61 -40 62 -50 36 -28 -73 -41 -185 -41 -345 0 -93 -7 -213 -15 -268
-18 -127 -19 -190 -1 -248 14 -45 13 -51 -26 -169 -29 -90 -40 -139 -40 -187
0 -62 -2 -67 -37 -101 l-36 -35 -6 75 c-4 41 -11 89 -17 106 -8 25 -6 44 11
90 18 51 21 86 23 264 1 113 7 223 12 244 10 37 9 42 -19 73 -16 19 -29 44
-29 56 0 25 43 121 58 131 6 4 -3 32 -25 74 -40 77 -40 108 2 169 40 59 47
100 30 167 -19 72 -19 100 0 116 24 20 18 33 -30 73 -38 32 -44 41 -39 66 5
24 -6 47 -58 128 l-63 99 1 -536 c1 -350 5 -543 12 -556 5 -10 18 -58 27 -107
17 -83 17 -90 1 -126 -15 -33 -16 -49 -6 -132 15 -128 23 -461 13 -531 l-8
-57 -58 65 -57 66 7 51 c12 78 6 472 -7 544 -8 42 -19 68 -32 77 -19 13 -20
28 -22 263 -2 217 -5 256 -23 317 l-21 68 30 65 c30 63 30 66 24 176 -4 62 -7
182 -6 267 0 85 -3 189 -8 230 -7 71 -12 82 -86 198 -44 67 -81 121 -83 119
-2 -2 2 -129 8 -283 13 -318 8 -683 -11 -794 -12 -71 -11 -80 9 -138 15 -46
21 -86 21 -155 0 -72 6 -107 25 -162 20 -56 25 -89 25 -168 0 -53 11 -190 26
-303 14 -114 24 -217 22 -230 -3 -20 -12 -12 -70 57 -43 51 -69 91 -72 112
-35 229 -56 408 -56 470 0 66 -5 85 -35 148 -31 65 -35 82 -35 154 0 44 7 123
16 175 22 130 23 270 1 340 -14 44 -15 66 -7 114 18 114 22 343 10 610 l-12
270 -40 60 c-23 34 -43 63 -45 65 -2 3 -14 -6 -28 -19 l-25 -23 0 -256 c0
-141 -5 -313 -11 -382 -11 -122 -11 -129 10 -171 25 -53 27 -108 5 -212 -11
-52 -23 -84 -39 -100 -56 -56 -66 -193 -35 -451 19 -160 21 -197 11 -257 -6
-39 -18 -82 -25 -96 l-13 -26 -12 22 c-9 17 -9 37 -1 79 24 132 4 477 -31 521
-26 33 -24 59 12 209 37 151 36 219 -5 308 -23 50 -26 70 -26 162 0 73 6 129
21 189 22 84 22 85 2 137 l-19 53 33 69 c36 76 39 94 22 157 -10 38 -9 51 16
118 43 119 43 125 -13 208 l-50 73 -7 -48 c-4 -26 -15 -68 -25 -93 -10 -25
-21 -83 -24 -130 -3 -49 -15 -117 -29 -160 -20 -63 -23 -90 -20 -165 4 -73 0
-108 -21 -188 -23 -89 -24 -100 -10 -132 18 -44 18 -90 -2 -147 -14 -43 -14
-50 7 -118 21 -72 22 -75 9 -327 -10 -191 -11 -293 -3 -406 6 -84 10 -153 9
-154 -1 -2 -20 23 -42 55 -38 53 -42 66 -64 202 -12 80 -36 203 -51 275 -16
71 -29 138 -29 148 0 10 12 41 26 69 24 47 25 55 15 107 -36 187 -21 419 48
768 58 291 69 359 80 513 8 106 7 118 -11 148 -11 18 -22 31 -24 29 -3 -2 -20
-60 -39 -129 -18 -68 -47 -161 -64 -206 -29 -80 -30 -88 -24 -200 5 -117 5
-117 -27 -175 -28 -52 -32 -73 -41 -180 -5 -67 -14 -158 -19 -202 -6 -44 -15
-216 -21 -382 -9 -260 -8 -307 4 -345 18 -52 31 -118 24 -118 -5 0 -146 218
-166 258 -9 18 -10 49 -2 130 11 105 8 136 -19 193 -16 36 4 195 65 509 26
129 52 288 60 352 10 86 21 130 40 168 14 28 39 106 55 173 31 128 48 184 76
243 16 34 16 38 -1 70 -10 19 -22 31 -26 27 -4 -5 -35 -73 -69 -153 -74 -174
-114 -310 -169 -575 -23 -110 -59 -270 -79 -355 -36 -155 -37 -156 -37 -381 0
-181 -2 -223 -12 -209 -73 104 -373 688 -472 919 l-52 121 21 106 c11 58 20
120 20 137 0 20 13 52 34 85 34 51 34 52 18 84 -13 24 -17 58 -17 128 1 91 4
104 67 290 37 107 70 218 73 245 4 28 16 64 28 80 12 17 62 109 111 205 82
161 89 181 94 246 2 39 0 74 -5 77 -14 9 -95 -151 -173 -343 -39 -96 -92 -215
-119 -265 -26 -49 -46 -96 -43 -104 7 -22 -16 -113 -52 -198 -46 -108 -55
-158 -66 -373 -5 -102 -16 -207 -23 -235 -14 -47 -15 -49 -24 -25 -6 14 -35
88 -64 165 -71 187 -71 203 10 442 111 333 232 616 433 1020 90 181 129 249
152 267 25 19 34 36 44 85 7 34 16 70 19 79 3 9 -34 -41 -83 -113 -49 -71
-124 -176 -167 -233 -79 -104 -90 -125 -102 -195 -4 -25 -20 -54 -45 -81 -34
-36 -42 -55 -59 -133 -21 -95 -69 -212 -122 -295 -24 -37 -28 -51 -20 -66 12
-23 -4 -88 -31 -118 -22 -25 -38 -76 -38 -122 0 -25 -9 -43 -35 -69 -34 -34
-35 -37 -35 -114 0 -43 -4 -79 -8 -79 -5 0 -28 67 -51 149 l-43 149 16 48 c9
27 32 76 52 108 38 64 38 86 0 86 -27 0 -72 -47 -82 -86 -11 -42 -20 -26 -41
69 -17 80 -18 96 -6 126 17 45 17 49 -9 53 -17 2 -24 12 -30 41 -17 84 -58
389 -68 515 -10 130 -10 134 12 179 13 25 65 98 116 162 113 139 166 216 191
274 12 27 40 60 77 91 100 83 140 140 130 181 -6 22 -10 19 -65 -38 -32 -34
-120 -145 -195 -247 -115 -157 -143 -189 -183 -210 -46 -24 -49 -28 -70 -100
l-22 -75 0 167 -1 166 47 59 c26 32 114 127 195 210 128 132 154 163 182 225
57 126 126 203 389 442 54 49 116 112 137 141 29 39 48 54 80 64 31 9 70 39
149 116 83 79 125 112 187 143 92 46 104 58 144 140 40 83 90 121 470 355 111
68 192 103 409 178 108 37 225 79 260 94 50 21 73 26 106 20 42 -6 46 -4 105
49 119 106 229 150 417 166 65 5 171 14 236 19 l119 10 126 -64 c74 -36 121
-65 112 -68 -55 -19 -513 -40 -546 -25 -18 9 -36 3 -101 -31 -43 -22 -91 -46
-108 -52 l-30 -11 25 -20 c32 -26 73 -21 167 21 39 17 102 35 139 41 88 12
303 12 419 0 263 -29 229 -18 374 -114 72 -48 131 -89 131 -92 0 -9 -115 6
-212 27 -95 21 -202 25 -242 9 -21 -8 -35 -4 -72 15 -40 21 -60 25 -136 25
-49 0 -149 -10 -221 -22 -117 -20 -170 -22 -462 -23 -378 0 -365 2 -544 -99
-53 -29 -188 -100 -301 -156 -194 -97 -360 -194 -360 -212 0 -25 74 -1 198 63
75 40 190 91 255 115 64 24 149 60 188 80 57 30 87 38 159 46 48 4 216 31 372
58 521 92 661 99 882 41 131 -34 154 -36 209 -17 24 9 39 10 43 4 13 -21 79
-39 187 -53 62 -7 119 -16 128 -20 9 -3 22 1 29 10 7 8 17 15 22 15 11 0 117
-85 268 -214 125 -108 437 -418 535 -533 38 -45 71 -81 72 -79 2 2 -12 46 -31
97 -407 1116 -1414 1954 -2569 2139 -215 34 -470 48 -642 33z m80 -757 c-352
-121 -523 -197 -698 -313 -49 -33 -74 -43 -91 -39 -30 7 -102 -53 -111 -93 -6
-26 -13 -31 -58 -41 -38 -8 -90 -36 -196 -106 -139 -93 -201 -124 -245 -124
-14 0 -28 -13 -43 -39 -16 -29 -38 -46 -88 -71 -49 -25 -72 -43 -88 -71 -20
-35 -47 -59 -47 -41 0 18 167 228 256 321 193 203 400 355 647 477 296 145
641 229 952 232 l80 1 -270 -93z m671 59 c51 -8 115 -20 144 -26 l52 -11 -28
-19 c-37 -24 -85 -24 -115 0 -24 19 -24 19 -57 -1 -27 -16 -43 -19 -81 -14
-40 5 -52 3 -81 -20 -70 -52 -110 -67 -162 -61 -42 5 -55 2 -94 -23 -25 -16
-103 -50 -172 -75 -170 -63 -226 -91 -286 -146 -66 -59 -85 -69 -139 -69 -48
0 -94 -28 -152 -90 -48 -52 -133 -105 -343 -213 -212 -110 -284 -156 -376
-236 -40 -36 -64 -50 -75 -45 -39 16 -49 13 -91 -24 -25 -21 -92 -78 -150
-126 -145 -120 -243 -219 -294 -296 -24 -36 -52 -73 -63 -83 -20 -17 -83 -41
-83 -31 0 14 95 235 138 321 66 131 121 199 180 224 26 11 78 39 116 61 63 38
71 41 99 30 41 -16 57 -4 147 103 67 80 75 86 131 102 62 17 137 71 254 183
77 74 201 159 243 165 77 13 141 39 261 107 163 93 207 109 300 110 72 0 80 2
147 44 91 57 216 107 357 144 130 34 151 35 273 15z m453 -110 c77 -25 142
-49 145 -53 8 -13 -140 -34 -289 -42 -138 -6 -141 -7 -200 -42 -33 -20 -107
-50 -165 -68 -202 -62 -289 -104 -711 -342 -137 -77 -288 -154 -340 -173 -133
-49 -162 -73 -226 -185 -69 -120 -101 -153 -245 -251 -65 -44 -175 -128 -245
-188 -161 -137 -469 -449 -685 -695 -135 -153 -167 -196 -172 -226 -3 -23 -25
-62 -53 -100 -27 -34 -63 -83 -82 -109 l-33 -46 6 60 c29 299 27 285 58 308
16 12 51 58 76 101 61 103 128 175 271 291 78 63 146 129 206 202 162 195 189
224 270 289 44 36 154 110 245 164 180 108 265 170 301 221 l23 32 -39 -6
c-38 -6 -96 -42 -255 -157 -47 -34 -128 -84 -181 -110 -117 -59 -153 -88 -184
-150 -24 -47 -101 -122 -255 -247 -99 -81 -248 -234 -298 -305 -22 -32 -50
-82 -62 -112 -18 -44 -32 -61 -77 -91 -42 -28 -54 -32 -50 -18 3 10 13 54 22
98 8 44 26 122 40 174 l24 94 84 86 c46 47 112 125 145 172 129 182 320 321
913 668 266 155 278 161 331 161 40 0 62 -5 81 -20 25 -20 26 -20 35 -3 5 10
12 39 16 64 9 59 29 77 101 89 90 15 94 17 97 58 l3 37 84 18 c106 22 190 55
321 128 58 31 126 66 150 75 37 15 629 190 652 193 3 1 69 -19 147 -44z
m-1464 -6947 c23 -14 65 -95 80 -157 10 -36 15 -90 13 -136 l-3 -76 -54 69
c-52 67 -54 71 -57 143 -3 41 -5 81 -6 89 -3 34 4 104 9 90 3 -8 12 -18 18
-22z m1575 -1475 c-39 -90 -95 -251 -116 -332 l-9 -33 -70 64 -70 65 31 26
c16 14 50 63 75 108 35 66 59 95 118 146 41 35 76 61 79 59 2 -3 -15 -49 -38
-103z m460 -135 c0 -12 -25 -72 -57 -133 -31 -60 -64 -139 -74 -175 -10 -36
-31 -113 -46 -172 l-29 -108 -48 49 -48 49 21 57 c12 32 37 76 55 99 22 26 40
64 50 105 21 81 68 180 105 220 35 37 71 42 71 9z m110 -376 c0 -5 -7 -17 -15
-28 -14 -18 -14 -17 -4 9 12 27 19 34 19 19z m-447 -60 c-3 -12 -9 -19 -14
-16 -5 3 -3 14 3 24 15 24 19 21 11 -8z m316 -210 l-22 -81 -37 32 -38 31 44
33 c24 19 49 43 55 54 20 39 19 12 -2 -69z m260 -198 c-12 -54 -23 -101 -25
-103 -2 -3 -15 6 -28 18 l-24 22 33 54 c18 30 38 68 45 85 21 51 21 29 -1 -76z
m361 -157 c-25 -80 -48 -132 -57 -123 -3 3 12 53 33 111 43 118 58 125 24 12z"/>
<path d="M908 13073 c-91 -99 -319 -461 -441 -700 -236 -465 -367 -897 -429
-1418 -20 -169 -17 -693 5 -875 114 -925 470 -1808 1114 -2760 573 -846 1387
-1725 2308 -2491 598 -498 1220 -932 1740 -1212 163 -88 392 -193 401 -184 5
5 -77 70 -446 352 -506 386 -1011 808 -1470 1229 -224 205 -802 783 -991 991
-1440 1584 -2204 3080 -2319 4539 -13 165 -13 526 0 681 51 600 212 1165 487
1708 43 83 79 155 81 160 8 17 -16 5 -40 -20z"/>
<path d="M4997 12874 c-20 -11 -65 -16 -160 -17 -123 -2 -137 -5 -202 -34 -64
-28 -82 -31 -210 -36 -153 -6 -236 -20 -578 -96 -243 -54 -236 -52 -336 -116
-110 -71 -250 -141 -361 -180 -141 -49 -177 -72 -292 -181 -54 -51 -183 -157
-286 -235 -103 -78 -214 -167 -247 -198 -150 -140 -275 -298 -275 -349 0 -19
15 -5 79 74 121 152 270 282 631 551 74 56 170 133 213 171 119 107 169 136
236 137 50 1 63 6 111 42 81 60 156 95 330 151 259 83 558 142 724 142 50 0
78 7 127 30 99 46 209 70 344 76 139 6 159 0 135 -42 -30 -53 -61 -67 -177
-77 -142 -11 -186 -23 -219 -58 -24 -25 -25 -29 -10 -35 24 -9 99 2 197 30 68
19 129 26 317 36 333 18 513 5 667 -49 33 -12 84 -21 116 -21 39 0 84 -10 140
-30 106 -39 145 -37 75 4 -180 108 -403 164 -747 188 -181 12 -174 14 -275
-47 -71 -42 -85 16 -24 94 34 43 39 54 30 71 -13 24 -35 25 -73 4z"/>
<path d="M4420 12560 c-57 -20 -103 -30 -145 -30 -148 -1 -285 -36 -405 -105
-43 -25 -115 -55 -170 -70 -131 -37 -288 -109 -408 -188 -163 -106 -594 -545
-1047 -1064 -112 -129 154 104 295 258 53 57 157 174 232 259 357 408 505 510
1048 720 96 38 206 82 243 99 55 25 82 31 136 31 37 0 116 9 176 20 60 11 125
20 144 20 21 1 46 9 61 21 l25 21 -24 19 c-32 26 -61 24 -161 -11z"/>
<path d="M4792 12523 c-26 -2 -45 -10 -49 -19 -11 -28 -55 -43 -103 -34 -68
14 -75 12 -109 -21 -24 -22 -39 -29 -54 -25 -12 4 -41 9 -63 12 -37 6 -44 3
-69 -24 -26 -30 -29 -30 -133 -34 l-107 -3 -140 -77 c-93 -52 -158 -81 -195
-88 -132 -25 -157 -37 -248 -123 -118 -111 -158 -142 -294 -226 -145 -89 -221
-152 -290 -239 -28 -37 -80 -97 -115 -135 -44 -47 -63 -75 -63 -93 0 -24 3
-22 48 27 249 281 386 414 446 431 23 7 55 22 71 34 17 13 80 49 140 81 96 51
110 62 115 88 4 25 13 32 66 50 33 11 123 53 200 92 172 88 207 98 414 124
189 23 230 31 303 60 76 30 215 39 603 39 424 1 497 -7 618 -61 50 -23 198
-77 330 -120 195 -64 256 -89 332 -134 52 -31 99 -53 104 -50 20 12 9 35 -28
59 -21 13 -54 40 -72 60 -23 24 -40 34 -52 30 -18 -5 -69 16 -153 66 -31 19
-58 28 -72 25 -16 -4 -29 5 -52 34 -30 37 -35 39 -104 46 -90 9 -181 37 -230
71 -48 32 -153 49 -392 63 -205 12 -543 20 -603 14z"/>
<path d="M9996 12336 c76 -56 104 -86 152 -166 35 -58 43 -66 79 -73 27 -5 61
-25 104 -63 35 -30 115 -92 179 -138 158 -114 202 -156 346 -328 169 -202 213
-270 224 -345 10 -77 27 -107 89 -165 36 -34 65 -78 106 -158 40 -78 68 -120
96 -142 23 -19 41 -43 45 -62 8 -38 52 -129 131 -266 98 -170 136 -267 152
-388 9 -68 73 -232 91 -232 3 0 12 28 19 63 l12 63 -88 204 c-164 384 -336
702 -487 900 -93 123 -120 178 -141 284 -19 103 -40 142 -106 195 -91 74 -110
92 -229 221 -307 334 -391 414 -533 511 -48 33 -99 76 -115 95 -27 34 -28 34
-106 34 l-78 0 58 -44z"/>
<path d="M10305 12362 c6 -5 52 -37 103 -72 54 -36 127 -99 175 -149 101 -107
164 -159 242 -203 58 -33 60 -36 60 -73 0 -39 2 -41 60 -70 l60 -30 0 -70 0
-70 41 3 c72 6 110 -20 224 -150 283 -324 349 -402 431 -510 49 -65 109 -153
134 -195 l46 -78 -7 55 c-6 45 -22 80 -87 185 -44 72 -91 150 -105 173 -22 39
-28 43 -53 38 -25 -5 -30 0 -57 47 -53 93 -117 171 -273 333 -145 149 -177
190 -243 306 -21 38 -33 48 -60 54 -39 7 -61 28 -99 95 -32 56 -90 115 -187
189 -41 32 -96 80 -122 107 -32 35 -57 52 -80 56 -18 3 -51 10 -73 15 -66 16
-141 25 -130 14z"/>
<path d="M9580 12340 c-14 -4 -19 -8 -12 -9 40 -3 171 -69 215 -109 58 -51
104 -73 135 -65 12 3 22 7 22 10 0 2 -33 37 -74 77 -59 59 -79 73 -98 69 -12
-2 -45 5 -71 16 -51 22 -76 24 -117 11z"/>
<path d="M5135 12270 c-338 -8 -374 -11 -515 -44 -63 -15 -114 -21 -151 -19
-52 4 -64 1 -134 -37 -69 -38 -83 -42 -140 -41 -62 1 -65 0 -114 -43 -30 -27
-68 -50 -93 -56 -93 -25 -225 -72 -279 -101 -53 -29 -174 -127 -166 -135 2 -2
28 9 58 25 30 16 142 64 249 106 107 43 238 97 290 121 143 65 357 101 757
129 120 8 230 18 246 21 15 3 46 -2 73 -12 38 -14 51 -15 78 -6 27 10 48 8
135 -14 57 -14 121 -32 142 -40 33 -14 40 -14 68 0 18 10 55 16 94 16 58 0 65
-2 85 -29 21 -29 22 -29 99 -24 70 4 87 2 161 -26 46 -17 109 -34 140 -38 54
-6 64 -12 218 -135 159 -126 369 -278 384 -278 4 0 13 21 20 48 l12 47 -82 78
c-46 43 -106 96 -134 117 -57 43 -233 133 -349 179 -166 66 -435 131 -544 131
-51 0 -100 19 -127 49 -17 18 -29 21 -95 19 -42 -1 -215 -4 -386 -8z"/>
<path d="M10772 12228 c28 -33 44 -44 74 -49 66 -9 105 -37 229 -166 76 -80
137 -134 167 -149 60 -31 114 -98 204 -256 67 -118 100 -160 161 -205 22 -16
38 -44 58 -100 39 -110 49 -123 90 -123 19 0 35 2 35 4 0 10 -61 169 -76 197
-30 60 -187 252 -229 281 -32 23 -44 39 -48 65 -9 51 -44 103 -71 103 -16 0
-32 12 -48 38 -14 20 -66 80 -116 132 -73 78 -107 105 -184 148 -81 45 -254
122 -274 122 -4 0 9 -19 28 -42z"/>
<path d="M9150 12237 l-65 -20 40 -18 c30 -14 66 -19 145 -19 193 0 281 -31
739 -259 167 -83 309 -151 317 -151 7 0 40 -27 73 -59 33 -33 95 -86 138 -119
43 -33 110 -93 148 -133 87 -92 132 -129 157 -129 36 0 -36 84 -297 346 -189
190 -263 258 -304 279 -30 15 -134 47 -231 71 -178 44 -291 84 -418 148 -134
68 -234 90 -296 67 -18 -7 -28 -6 -36 5 -16 18 -30 17 -110 -9z"/>
<path d="M9407 12072 c-15 -17 -15 -22 4 -72 16 -42 18 -59 10 -77 -16 -34
-33 -28 -79 25 -39 47 -43 49 -149 75 -133 32 -299 57 -385 57 -63 0 -168 -32
-168 -50 0 -13 72 -22 165 -21 155 3 262 -23 625 -151 52 -18 115 -47 140 -64
56 -39 144 -84 165 -84 25 0 17 30 -17 64 -22 22 -61 43 -117 62 -101 35 -151
76 -151 123 0 39 15 40 118 5 106 -35 186 -80 252 -140 41 -38 72 -56 125 -73
114 -37 320 -143 465 -240 184 -122 246 -175 305 -257 28 -39 56 -69 62 -67 6
2 29 -5 50 -16 41 -20 92 -87 153 -196 18 -33 63 -103 100 -155 218 -309 343
-522 395 -672 30 -85 52 -104 41 -37 -21 134 -106 304 -280 562 -78 117 -163
253 -189 302 -52 101 -88 141 -197 225 -77 60 -137 119 -252 250 -61 69 -80
83 -254 182 -239 136 -327 179 -455 222 -74 26 -112 45 -138 69 -46 45 -101
72 -187 93 -44 11 -81 28 -102 46 -18 15 -34 28 -36 28 -2 0 -10 -8 -19 -18z"/>
<path d="M5399 12055 c-3 -2 -149 -9 -324 -14 -516 -16 -697 -52 -973 -190
-42 -21 -135 -60 -207 -86 -237 -86 -372 -162 -568 -318 -72 -57 -97 -84 -109
-116 l-17 -42 24 18 c280 215 303 230 468 293 72 28 130 58 171 90 34 26 80
57 102 68 64 32 222 79 344 102 63 12 185 40 270 62 l155 41 340 3 c402 3 479
-3 604 -51 63 -24 107 -35 144 -35 45 0 70 -9 169 -59 124 -63 218 -90 396
-115 119 -17 155 -37 231 -131 76 -93 223 -229 275 -255 29 -13 56 -20 70 -16
45 11 41 81 -6 124 -16 15 -62 59 -101 97 -61 59 -84 74 -152 100 -61 22 -91
41 -128 77 -42 42 -57 50 -116 63 -87 18 -200 63 -316 126 -88 47 -97 50 -246
69 -157 21 -347 60 -421 86 -41 14 -71 18 -79 9z"/>
<path d="M2705 11835 c-61 -41 -152 -113 -202 -160 -77 -72 -98 -98 -128 -160
-31 -67 -46 -84 -137 -162 -143 -122 -164 -147 -193 -224 -26 -66 -78 -129
-134 -158 -14 -8 -21 -21 -21 -42 0 -24 -19 -50 -102 -137 -155 -164 -188
-209 -188 -258 0 -32 -9 -52 -41 -95 -49 -65 -64 -98 -50 -112 22 -22 87 66
201 271 35 61 87 138 117 169 29 32 53 67 53 78 0 29 25 62 105 141 50 49 83
93 114 152 52 102 78 132 195 226 120 97 151 131 231 254 69 106 70 107 223
202 46 28 97 90 75 90 -5 0 -58 -34 -118 -75z"/>
<path d="M4935 11865 c-60 -12 -195 -48 -300 -78 -104 -30 -217 -60 -250 -67
-46 -9 -70 -21 -102 -51 -30 -28 -61 -44 -115 -59 -111 -32 -147 -51 -176 -88
-21 -28 -23 -35 -11 -43 26 -16 54 -9 98 26 44 36 52 38 126 50 51 8 123 40
151 66 13 12 44 23 81 29 33 4 91 21 129 37 68 28 71 28 219 22 139 -5 164
-10 340 -57 105 -28 210 -54 233 -57 26 -4 51 -16 60 -27 36 -43 55 -56 109
-71 49 -14 66 -27 152 -116 78 -81 104 -102 141 -112 33 -9 64 -31 115 -80 39
-37 104 -95 145 -130 41 -34 114 -99 161 -144 47 -45 121 -108 165 -140 130
-96 173 -136 250 -229 l73 -89 -31 -43 c-52 -73 -61 -78 -97 -59 -32 16 -55
47 -114 155 -39 72 -61 95 -128 133 -37 21 -61 48 -113 127 -51 77 -78 107
-114 129 -76 47 -109 79 -162 156 -50 72 -80 95 -124 95 -16 0 -33 13 -51 38
-40 54 -61 69 -145 108 -41 20 -85 45 -98 57 -22 20 -43 24 -172 30 -28 2 -62
13 -90 29 -86 51 -124 59 -325 69 -104 4 -224 15 -265 23 -75 14 -75 14 -108
-11 -28 -21 -40 -24 -75 -19 -23 4 -52 16 -64 28 -26 24 -38 19 -46 -20 -6
-27 -12 -30 -114 -56 -167 -43 -325 -114 -467 -209 -63 -43 -259 -203 -264
-217 -6 -17 37 -21 70 -6 42 18 210 141 202 148 -3 3 10 16 28 29 18 12 50 38
72 57 67 59 135 81 367 117 57 9 140 26 184 37 74 18 90 19 215 9 74 -6 198
-10 275 -9 163 3 153 7 462 -142 329 -159 525 -310 705 -541 33 -43 69 -81 80
-85 30 -9 94 -70 157 -149 30 -38 84 -103 119 -143 l63 -72 -19 -28 c-11 -15
-29 -35 -39 -45 -19 -16 -21 -15 -54 30 -18 27 -102 118 -185 204 -83 86 -169
183 -191 215 -28 43 -51 65 -83 80 -25 12 -81 58 -126 102 -59 59 -92 84 -123
93 -35 10 -54 27 -98 82 -65 81 -93 99 -182 122 -40 10 -76 26 -92 41 -26 25
-28 25 -75 11 -48 -14 -50 -14 -108 15 -173 87 -332 90 -696 13 -140 -30 -143
-31 -216 -90 -29 -24 -97 -64 -151 -90 -95 -46 -193 -109 -193 -125 0 -16 44
-19 78 -4 19 8 66 37 104 65 59 45 91 58 226 101 216 68 308 88 442 94 135 7
220 -8 317 -58 62 -32 63 -32 98 -15 l36 17 42 -34 c23 -18 98 -62 166 -96 85
-42 142 -78 180 -114 31 -29 90 -76 131 -105 41 -29 140 -119 220 -200 80 -80
166 -160 192 -176 38 -24 65 -57 136 -165 l89 -135 -31 -36 -31 -36 -30 32
c-16 18 -48 41 -70 53 -52 27 -79 57 -158 177 -106 163 -170 225 -230 225 -19
0 -32 13 -60 58 -45 73 -72 98 -122 111 -45 12 -103 65 -130 121 -10 19 -18
36 -19 37 -1 2 -17 -2 -36 -7 -30 -9 -37 -6 -74 24 -54 44 -83 57 -201 96 -55
17 -112 41 -128 52 -23 17 -32 18 -59 9 -45 -16 -138 -14 -220 5 l-70 16 -87
-41 c-60 -28 -143 -54 -276 -86 -128 -31 -214 -58 -262 -81 -82 -41 -237 -166
-301 -243 -73 -87 -227 -217 -296 -250 -48 -23 -66 -37 -74 -60 -7 -17 -17
-44 -23 -61 -9 -24 -17 -30 -41 -30 -36 0 -67 15 -90 43 -15 20 -15 24 13 78
36 73 122 165 224 242 134 101 302 244 326 278 l23 32 -30 -7 c-50 -12 -97
-50 -231 -185 -128 -130 -165 -153 -179 -116 -12 30 8 68 70 134 71 75 99 121
94 154 -3 18 -17 7 -99 -71 -105 -100 -135 -145 -120 -184 7 -18 1 -34 -29
-78 -45 -68 -131 -213 -166 -282 -25 -50 -26 -51 -8 -90 17 -38 17 -38 38 -19
24 21 60 41 75 41 16 0 33 -79 26 -118 -3 -19 -14 -49 -22 -68 -14 -27 -14
-38 -4 -60 11 -26 13 -24 79 86 163 271 398 533 592 661 98 65 292 159 418
203 127 44 219 57 314 45 83 -11 129 -5 175 21 30 18 32 18 48 0 27 -30 103
-57 225 -80 146 -27 178 -42 270 -124 92 -82 389 -312 483 -374 85 -56 122
-103 212 -266 39 -70 88 -148 111 -174 37 -41 40 -49 30 -74 -13 -36 -3 -45
29 -24 32 21 54 10 80 -37 l18 -34 -33 -47 c-19 -25 -37 -43 -41 -39 -14 16
-246 310 -290 368 -25 33 -62 88 -83 122 -32 54 -46 66 -100 93 -34 17 -118
72 -187 123 -143 107 -180 130 -231 146 -29 10 -43 23 -67 66 -30 53 -31 54
-118 80 -48 14 -122 37 -163 50 -219 70 -349 76 -497 25 -61 -21 -63 -21 -93
-4 -29 18 -31 18 -83 -8 -87 -42 -314 -187 -417 -264 -200 -151 -393 -382
-548 -656 l-32 -56 21 -36 c11 -20 25 -34 29 -31 5 3 45 71 90 153 195 350
327 506 510 601 41 22 102 61 135 87 118 92 230 127 334 105 48 -10 56 -9 103
15 74 38 156 31 302 -25 60 -23 138 -49 173 -57 52 -12 79 -26 132 -68 101
-82 257 -183 351 -228 66 -32 108 -62 189 -137 229 -210 234 -216 322 -398 44
-90 89 -177 100 -193 l21 -28 -38 -68 -38 -68 -97 201 c-98 203 -166 319 -211
360 -14 13 -47 27 -79 33 -47 8 -59 16 -94 57 -96 115 -145 151 -358 264 -76
41 -162 95 -191 121 -78 69 -132 82 -336 83 -91 0 -187 -4 -215 -9 l-50 -8 61
-22 c34 -13 79 -33 100 -46 24 -14 79 -30 145 -41 231 -40 400 -124 566 -283
70 -67 121 -107 162 -126 74 -35 151 -104 151 -135 0 -34 -61 -120 -85 -120
-14 0 -29 19 -55 69 -34 68 -39 72 -182 171 -188 131 -314 207 -413 250 -44
19 -81 33 -82 31 -2 -2 10 -32 26 -67 16 -35 31 -71 34 -80 4 -11 22 -19 54
-23 74 -11 82 -15 107 -55 20 -31 33 -40 87 -55 54 -15 72 -26 119 -74 30 -31
87 -104 126 -162 85 -127 224 -363 224 -382 0 -8 -6 -23 -14 -33 -13 -17 -15
-17 -51 11 -22 16 -77 89 -133 173 -79 120 -118 167 -226 275 l-131 130 -72 4
-73 4 0 -35 c0 -19 -2 -41 -5 -49 -3 -8 23 -37 67 -73 113 -92 184 -162 258
-255 38 -47 102 -114 143 -147 91 -75 109 -112 80 -171 -24 -49 -52 -53 -88
-10 -15 18 -35 47 -43 65 l-16 33 -37 -36 -37 -36 -16 30 c-9 17 -16 47 -16
66 0 53 -17 87 -65 133 -24 23 -60 71 -79 106 -46 81 -61 94 -140 122 l-66 23
-30 -41 -30 -41 32 -26 c67 -52 108 -93 162 -164 47 -61 59 -86 77 -157 14
-56 39 -116 75 -178 30 -54 57 -116 63 -145 14 -73 21 -170 12 -160 -30 36
-113 157 -131 193 -12 24 -42 103 -67 175 -46 135 -92 233 -123 261 -9 8 -47
24 -83 34 -37 10 -81 29 -99 43 l-32 25 -43 -24 -42 -24 70 -71 c121 -123 232
-304 270 -445 27 -99 43 -130 120 -233 92 -124 110 -167 119 -274 5 -60 19
-128 43 -201 49 -151 58 -205 51 -285 -10 -104 -22 -88 -80 112 -18 65 -44
139 -57 165 -14 26 -73 170 -132 318 -162 407 -241 564 -364 718 -110 138
-161 169 -211 129 -22 -17 -22 -19 -6 -50 9 -17 16 -44 16 -59 0 -18 16 -49
41 -83 23 -30 62 -95 86 -145 67 -132 145 -257 233 -371 43 -55 87 -118 97
-140 53 -105 55 -232 5 -381 l-31 -91 16 -89 c15 -86 15 -92 -11 -248 -38
-236 -37 -252 26 -348 l52 -80 14 49 c8 27 17 67 22 89 l7 40 2 -40 c1 -22 2
-77 1 -122 -1 -82 -1 -82 50 -165 28 -46 72 -117 99 -158 27 -41 119 -184 204
-318 151 -237 167 -254 167 -188 0 13 6 38 13 57 11 32 12 26 17 -76 l6 -110
60 -95 c33 -52 78 -123 100 -157 21 -34 42 -62 46 -63 3 0 10 19 14 43 7 38 8
40 15 17 4 -14 7 -48 8 -76 1 -43 9 -63 54 -135 88 -140 165 -258 237 -369 38
-58 100 -154 137 -213 65 -104 68 -108 71 -75 3 36 80 278 92 291 8 9 -4 -63
-20 -121 -7 -26 -5 -42 5 -63 21 -40 19 -62 -15 -129 l-30 -59 28 -45 c29 -49
42 -57 42 -27 0 11 4 22 9 25 12 8 31 -48 31 -92 0 -26 23 -72 97 -191 116
-188 252 -391 262 -391 20 0 121 74 121 88 0 9 -21 118 -46 241 l-45 223 70
147 c38 80 84 178 101 216 l31 70 -5 -170 c-3 -139 -10 -199 -36 -330 -33
-168 -35 -234 -8 -322 l13 -42 88 56 87 56 0 176 c0 117 -6 210 -17 279 -17
105 -13 129 19 117 33 -13 51 -76 55 -195 3 -102 20 -196 52 -283 5 -15 17
-10 91 39 47 31 89 60 93 64 4 4 -27 78 -70 165 l-78 158 -3 232 -3 233 91 52
c50 29 93 50 96 48 2 -3 -14 -117 -37 -254 -46 -276 -47 -349 -11 -421 24 -47
61 -77 122 -98 l41 -14 72 51 c40 28 73 52 74 53 2 1 -13 48 -32 105 -19 57
-35 115 -35 129 0 15 14 46 30 71 l30 45 0 155 c0 85 7 252 16 370 9 118 17
316 18 440 2 206 4 229 24 271 12 25 28 90 37 143 37 231 101 492 175 721 27
83 56 179 65 215 9 36 25 83 35 105 21 42 82 91 99 80 22 -13 11 -62 -24 -107
-25 -32 -38 -61 -45 -101 -15 -94 -70 -288 -103 -362 -22 -50 -33 -94 -38
-155 -10 -117 -25 -199 -42 -240 -8 -19 -24 -97 -36 -172 -11 -75 -27 -152
-34 -171 -12 -28 -12 -36 -1 -52 20 -27 17 -75 -5 -99 -17 -19 -18 -27 -8 -72
8 -40 7 -79 -6 -177 -19 -142 -22 -243 -7 -283 8 -19 7 -37 -1 -61 -22 -66
-27 -210 -17 -448 5 -132 13 -246 17 -252 5 -10 16 -7 41 11 l34 23 -3 324
c-2 266 0 341 14 421 12 71 13 102 6 117 -16 28 -15 54 4 156 9 50 20 164 24
255 10 206 39 377 91 549 11 35 20 83 20 107 0 25 8 61 19 82 28 56 40 102 65
274 19 128 31 172 59 235 34 74 36 85 40 203 3 114 6 131 34 190 39 86 65 115
186 208 56 43 163 142 237 218 74 77 152 152 172 168 21 16 39 39 43 56 3 15
15 36 26 46 26 23 24 40 -6 60 -32 21 -58 14 -131 -35 -166 -111 -288 -241
-558 -598 -91 -120 -185 -244 -210 -276 -37 -47 -53 -83 -87 -190 -23 -73 -52
-153 -65 -179 -16 -31 -24 -64 -24 -98 0 -27 -18 -131 -40 -229 -22 -98 -40
-196 -40 -217 0 -29 -6 -43 -25 -59 -20 -15 -28 -35 -36 -85 -5 -36 -17 -85
-25 -110 -11 -33 -18 -114 -24 -295 -6 -169 -15 -279 -27 -340 -12 -59 -17
-123 -15 -184 2 -60 -3 -121 -14 -167 -15 -70 -15 -77 7 -186 28 -146 30 -234
5 -272 -18 -28 -19 -28 -36 -10 -9 11 -31 48 -47 84 -24 52 -28 71 -21 90 6
14 7 55 2 95 -10 92 -9 121 4 380 12 223 15 257 34 378 8 58 7 78 -7 122 -16
53 -16 55 15 182 17 70 34 162 36 203 4 47 14 96 29 130 31 72 95 290 135 460
64 272 112 393 228 571 34 53 71 121 81 151 29 85 66 132 162 209 94 75 125
109 181 204 20 33 74 96 120 141 182 177 334 257 421 221 52 -22 77 -61 77
-119 0 -87 -41 -148 -235 -348 -145 -149 -292 -359 -331 -472 -32 -94 -59
-135 -105 -158 -21 -11 -43 -28 -48 -38 -5 -9 -21 -73 -36 -142 -78 -370 -99
-461 -130 -568 -21 -72 -37 -158 -44 -225 -8 -90 -14 -115 -36 -148 -14 -22
-23 -45 -19 -51 29 -46 21 -133 -16 -180 -18 -23 -19 -36 -13 -139 5 -92 1
-139 -17 -247 -22 -134 -26 -200 -19 -367 2 -54 -2 -108 -10 -136 -12 -43 -11
-53 13 -125 15 -43 30 -105 33 -136 3 -32 9 -58 12 -58 3 0 17 9 30 19 23 18
24 20 10 52 -10 25 -14 77 -13 194 1 186 14 341 54 625 16 113 37 273 45 355
27 251 70 461 185 895 94 357 103 383 147 427 25 26 49 67 71 124 35 91 71
149 72 115 0 -59 -105 -305 -190 -440 -38 -61 -38 -61 -29 -126 16 -112 -11
-234 -68 -309 -25 -32 -27 -42 -25 -106 2 -41 -5 -113 -17 -175 -12 -58 -21
-126 -21 -151 0 -25 -13 -111 -29 -190 -41 -204 -51 -325 -51 -628 1 -241 2
-263 15 -233 21 49 43 173 50 287 7 112 27 204 56 253 14 24 19 52 19 105 0
192 33 397 105 647 25 85 58 223 75 307 30 151 48 211 94 302 15 29 29 81 35
128 11 91 20 115 54 161 15 20 32 65 42 110 13 60 24 85 50 112 26 27 35 47
40 90 12 94 37 123 125 143 19 5 29 1 38 -14 11 -17 2 -41 -69 -192 -100 -210
-130 -286 -165 -407 -15 -51 -35 -101 -45 -111 -38 -38 -58 -96 -69 -200 -18
-177 -69 -362 -145 -530 l-44 -96 20 -53 20 -52 -45 -197 c-52 -228 -95 -507
-103 -671 -5 -112 -5 -115 13 -97 16 15 20 36 22 129 3 90 7 117 22 136 26 33
46 99 69 232 11 63 34 155 51 204 41 121 60 220 60 311 0 42 4 75 10 75 18 0
48 74 64 160 15 83 46 180 139 440 50 139 73 235 86 356 8 77 11 83 49 120 32
32 46 58 73 139 24 70 45 112 71 143 21 24 38 51 38 60 0 10 18 75 40 146 22
71 43 153 47 184 3 31 21 97 39 146 l32 91 16 -37 c21 -50 20 -67 -8 -172 -14
-49 -30 -141 -36 -205 -10 -96 -17 -129 -47 -194 -22 -50 -42 -117 -54 -188
-20 -114 -32 -150 -97 -289 -63 -135 -74 -175 -62 -220 8 -32 7 -48 -10 -93
-11 -29 -32 -64 -46 -78 -21 -20 -24 -29 -19 -61 7 -42 -18 -111 -53 -142 -19
-17 -20 -20 -6 -41 9 -13 14 -36 12 -52 -2 -22 -13 -33 -50 -50 -44 -22 -47
-24 -41 -56 4 -26 -2 -48 -26 -93 -33 -63 -37 -99 -20 -169 15 -60 6 -88 -47
-145 -40 -43 -43 -50 -34 -74 5 -15 10 -48 10 -73 0 -39 -5 -50 -36 -78 -30
-28 -36 -41 -45 -99 -5 -36 -27 -121 -50 -189 -29 -88 -42 -146 -46 -207 -4
-62 -11 -96 -28 -125 -25 -44 -49 -114 -43 -121 3 -2 25 12 51 32 42 33 49 45
78 132 18 53 49 139 71 191 24 59 38 110 38 138 0 46 53 167 92 209 11 13 29
65 44 134 14 62 59 213 100 336 41 123 83 262 94 311 12 48 36 121 54 163 44
97 52 125 71 240 21 124 20 122 54 141 25 15 29 23 33 75 3 43 17 86 50 159
80 172 112 375 113 705 0 223 0 226 -28 300 -16 41 -32 107 -36 145 -9 82 -42
155 -71 155 -25 0 -42 -33 -34 -65 6 -23 0 -21 -67 30 -154 116 -246 141 -390
106 -48 -12 -105 -21 -127 -21 -59 0 -84 -13 -145 -74 -31 -30 -73 -64 -94
-74 -45 -23 -68 -47 -78 -82 -10 -34 -45 -90 -56 -90 -5 0 -17 15 -26 34 l-16
35 -46 -38 c-74 -61 -98 -61 -107 0 -8 56 21 90 118 137 45 22 115 63 153 92
118 87 248 156 438 230 l67 27 98 -19 c126 -24 146 -33 198 -86 23 -25 66 -57
96 -71 33 -16 61 -39 75 -61 45 -73 62 -88 103 -95 36 -6 43 -12 65 -55 49
-97 51 -167 9 -446 -16 -107 -16 -131 -4 -207 8 -51 10 -113 7 -154 -10 -99
-54 -230 -95 -276 -10 -11 -15 -33 -14 -57 3 -48 -20 -105 -57 -145 -24 -25
-29 -41 -34 -101 -4 -50 -26 -133 -77 -285 -39 -118 -78 -243 -86 -279 -9 -36
-19 -69 -23 -75 -18 -24 -53 -121 -61 -169 -5 -29 -4 -73 1 -101 7 -37 6 -52
-5 -64 -45 -51 -128 -268 -166 -433 -19 -81 -26 -97 -44 -102 -13 -3 -31 -24
-45 -53 -20 -41 -111 -287 -111 -300 0 -6 113 83 158 126 33 31 45 54 81 166
24 72 53 144 66 160 33 45 54 88 76 163 11 37 36 90 55 118 28 41 37 69 50
145 26 161 60 280 214 739 181 542 203 623 202 745 -1 63 4 106 17 142 13 39
16 66 11 105 -4 29 -11 152 -15 273 -11 346 -36 503 -105 651 -42 91 -89 149
-170 207 -30 21 -82 68 -115 102 -78 82 -130 99 -290 98 -132 -1 -260 -31
-493 -116 -179 -66 -204 -79 -238 -129 -26 -36 -49 -52 -64 -43 -12 8 -32 90
-28 121 2 24 13 34 60 58 32 16 79 31 105 34 30 3 64 16 91 34 186 127 397
176 642 149 189 -21 189 -21 225 -57 19 -18 46 -36 62 -39 58 -13 84 -33 186
-142 121 -130 152 -183 149 -261 -2 -42 6 -74 39 -155 l40 -101 2 -426 c3
-584 -9 -666 -163 -1135 -102 -312 -131 -412 -151 -530 -7 -44 -22 -87 -40
-115 -42 -67 -57 -117 -85 -289 -28 -174 -56 -250 -110 -302 -30 -29 -54 -77
-79 -158 -7 -22 -6 -23 12 -10 11 8 86 72 166 144 140 123 148 133 177 200 48
117 73 221 68 288 -2 32 -9 62 -14 65 -15 10 9 179 31 222 10 19 28 47 40 62
14 17 27 52 34 95 6 37 46 189 88 337 73 260 75 269 60 300 -14 30 -14 39 4
102 46 163 63 292 63 469 -1 129 -5 188 -19 245 -19 80 -20 86 -9 171 5 41 1
74 -15 130 -13 48 -21 101 -20 149 3 181 -144 470 -320 633 -126 116 -241 179
-407 222 -132 34 -204 33 -280 -4 -32 -16 -125 -45 -205 -65 -190 -46 -245
-67 -321 -124 -59 -43 -67 -46 -119 -44 -48 2 -62 -2 -102 -29 -48 -31 -166
-155 -273 -285 -33 -40 -62 -70 -65 -68 -3 2 -12 28 -19 58 -12 52 -12 56 7
73 12 10 55 59 97 110 102 123 164 175 266 225 47 23 119 61 160 84 52 29 96
46 143 54 81 13 216 57 330 107 71 32 93 37 162 37 44 1 124 5 177 10 117 10
170 -1 222 -49 26 -23 50 -35 84 -40 105 -15 172 -63 249 -178 26 -39 77 -104
113 -142 54 -57 75 -91 112 -175 57 -131 66 -162 125 -440 54 -253 54 -252 38
-700 -8 -230 -8 -237 -38 -310 -28 -68 -31 -86 -31 -190 -1 -105 -3 -118 -25
-147 -23 -30 -24 -37 -17 -122 4 -58 3 -92 -4 -96 -26 -16 -48 -84 -53 -165
-4 -54 -15 -109 -31 -153 -15 -37 -26 -74 -26 -81 0 -8 -13 -28 -30 -46 -60
-64 -79 -123 -94 -283 -12 -139 -15 -149 -41 -177 -25 -26 -79 -139 -71 -148
2 -2 49 40 104 93 l100 96 27 117 c32 138 57 207 92 258 19 29 26 53 28 101 2
48 9 73 28 102 21 31 27 59 36 150 8 71 21 136 36 178 19 49 25 85 25 142 0
42 7 104 16 136 9 33 16 89 15 125 -1 36 7 112 18 170 15 73 21 145 21 234 0
72 5 155 11 185 13 63 -1 198 -47 436 -80 416 -195 663 -446 957 -137 161
-149 172 -180 158 -22 -11 -32 -7 -89 32 -36 24 -96 54 -135 67 -66 21 -85 22
-281 19 l-210 -3 -45 -41 c-36 -33 -54 -42 -95 -47 -27 -3 -112 -31 -187 -61
-75 -31 -165 -61 -199 -68 -55 -11 -69 -19 -132 -78 -64 -59 -395 -314 -400
-308 -6 8 -35 90 -35 98 0 5 37 28 83 51 69 35 103 62 217 174 146 143 150
146 249 180 90 31 434 180 498 216 78 43 119 49 257 37 113 -10 124 -10 167 9
44 20 46 20 57 2 20 -32 57 -49 138 -64 43 -9 101 -26 129 -39 121 -56 366
-280 460 -421 106 -160 191 -358 251 -590 26 -99 38 -173 49 -310 8 -99 18
-201 21 -227 4 -26 1 -91 -5 -145 -11 -84 -10 -103 3 -134 11 -26 12 -45 6
-75 -13 -52 -12 -126 0 -159 7 -20 5 -45 -10 -103 -25 -94 -54 -295 -75 -507
-25 -261 -81 -497 -151 -637 -24 -47 -33 -118 -15 -118 5 0 40 35 78 78 79 87
73 72 140 385 30 139 37 194 38 287 0 102 4 122 28 179 l27 64 2 411 c3 362 1
419 -14 478 -15 58 -16 78 -6 147 11 76 10 86 -12 158 -33 107 -37 198 -11
241 27 42 42 40 74 -5 37 -54 47 -114 51 -328 3 -104 9 -208 15 -230 11 -44 6
-193 -10 -265 -8 -35 -7 -54 5 -82 9 -19 16 -64 17 -99 3 -145 -9 -487 -20
-534 -10 -46 -61 -474 -61 -513 0 -11 18 2 50 38 37 42 49 63 50 88 0 18 12
149 26 290 23 227 25 281 19 467 -4 116 -8 327 -10 470 -3 356 -37 648 -111
974 -26 110 -33 156 -25 164 6 6 11 24 11 39 0 38 -107 251 -121 242 -18 -11
-4 -76 36 -163 40 -90 42 -141 4 -141 -23 0 -49 41 -118 185 -55 117 -89 168
-123 186 -19 10 -20 9 -14 -17 8 -33 87 -164 199 -331 73 -110 109 -191 123
-280 6 -36 3 -43 -19 -58 -16 -10 -40 -15 -64 -13 l-38 3 -5 61 c-5 57 -8 63
-58 114 -41 42 -71 90 -138 224 -152 301 -196 351 -415 480 -76 45 -159 103
-191 134 l-58 55 -94 12 c-64 8 -111 21 -143 38 -36 18 -54 22 -66 15 -10 -5
-72 -13 -140 -17 -96 -7 -132 -13 -169 -31 -45 -23 -47 -23 -73 -6 -27 18 -27
18 -58 -19 -36 -44 -97 -74 -148 -75 -36 0 -93 -34 -133 -79 -14 -15 -31 -21
-60 -21 -56 0 -120 -39 -231 -140 -96 -87 -133 -111 -205 -130 -35 -9 -60 -28
-112 -83 -38 -38 -68 -74 -68 -78 0 -5 -4 -9 -9 -9 -8 0 -55 110 -49 115 2 2
39 30 83 63 44 32 120 96 168 140 64 59 103 87 144 102 53 20 118 56 283 157
36 22 99 52 140 68 41 15 103 43 137 62 44 24 98 42 185 60 68 14 140 34 162
45 l39 20 29 -22 c28 -21 35 -21 86 -11 173 35 340 -23 607 -208 100 -70 133
-99 171 -151 25 -36 55 -73 66 -82 19 -17 68 -25 68 -12 0 15 -50 76 -127 154
-46 47 -98 108 -116 135 -24 37 -50 60 -107 92 -144 83 -269 143 -342 163 -81
22 -218 27 -281 9 -35 -9 -43 -8 -78 16 -37 24 -41 25 -62 10 -14 -10 -45 -15
-90 -15 -80 0 -120 -15 -189 -70 -36 -28 -60 -40 -83 -40 -18 0 -58 -13 -89
-30 -31 -16 -81 -43 -112 -60 -31 -16 -69 -30 -84 -30 -15 0 -36 -10 -50 -25
-31 -33 -166 -124 -305 -205 -82 -49 -133 -88 -201 -155 l-91 -90 -21 55 c-12
31 -22 61 -22 67 0 7 44 42 98 79 53 37 148 105 210 151 72 52 132 88 164 98
28 8 69 30 92 48 125 103 310 203 474 256 100 33 349 84 494 102 92 12 94 12
183 -19 113 -38 192 -59 278 -71 46 -7 79 -18 109 -39 24 -16 104 -60 178 -97
182 -91 213 -114 268 -198 26 -40 47 -77 47 -82 1 -17 113 -172 137 -189 12
-9 29 -16 38 -16 9 0 16 -10 16 -25 1 -14 20 -45 43 -70 22 -24 43 -56 46 -72
17 -76 42 -135 105 -248 l69 -123 -2 -98 c-2 -93 0 -103 30 -167 29 -60 32
-74 24 -109 -8 -32 -5 -54 10 -102 13 -40 23 -112 30 -211 15 -236 26 -320 49
-372 18 -42 20 -59 14 -138 -4 -59 -2 -111 7 -150 18 -85 13 -183 -11 -216
-16 -23 -17 -32 -8 -57 10 -25 8 -34 -11 -61 -21 -28 -22 -35 -11 -62 20 -47
14 -84 -27 -198 -31 -85 -44 -108 -70 -125 -27 -18 -31 -25 -26 -51 6 -31 11
-41 16 -34 2 2 35 42 74 89 47 57 76 103 88 139 10 29 30 74 46 100 51 82 66
338 30 512 -11 52 -22 126 -26 164 -4 39 -13 95 -21 125 -8 30 -17 116 -20
190 -6 144 -17 217 -42 265 -11 21 -16 63 -17 145 -1 103 -4 122 -28 173 -15
31 -41 116 -57 189 -42 185 -56 221 -104 278 -29 34 -48 70 -61 113 -44 156
-66 197 -106 197 -11 0 -44 42 -95 124 -133 214 -256 341 -432 448 -75 45 -83
53 -77 75 8 35 -2 45 -33 29 -42 -21 -96 -10 -116 25 -17 29 -25 32 -134 44
-29 3 -106 20 -170 37 -133 35 -232 39 -300 14 -40 -14 -45 -14 -68 0 -16 11
-35 14 -57 10 -21 -4 -40 -1 -52 8 -16 12 -22 12 -40 0 -11 -7 -56 -20 -99
-29 -75 -14 -149 -47 -175 -79 -9 -10 -19 -12 -35 -6 -31 11 -71 -8 -140 -69
-45 -39 -76 -56 -127 -71 -69 -21 -94 -37 -185 -121 -37 -35 -67 -52 -110 -65
-51 -14 -71 -28 -151 -105 -69 -66 -99 -89 -119 -89 -36 0 -86 -25 -120 -61
l-29 -31 -27 59 -27 58 26 20 c99 77 241 179 276 199 23 14 91 45 151 71 60
25 139 62 175 82 36 21 133 70 215 110 81 40 161 82 176 93 16 11 41 20 58 20
45 0 90 19 181 77 74 46 91 53 137 53 37 0 61 6 86 23 l34 24 239 -8 c220 -7
246 -9 318 -33 43 -14 87 -26 99 -26 11 0 41 -18 65 -41 25 -22 64 -49 87 -60
24 -10 61 -40 85 -69 26 -31 65 -62 101 -80 44 -22 64 -40 84 -75 20 -33 33
-45 51 -45 33 0 36 10 15 57 -13 30 -37 53 -96 94 -54 37 -86 67 -102 96 -16
29 -39 51 -77 72 -30 17 -123 76 -207 132 -245 162 -360 212 -480 208 -35 -1
-72 3 -83 9 -11 6 -32 13 -47 16 -15 4 -30 15 -33 27 -5 13 -12 18 -23 14 -8
-3 -90 -15 -181 -26 -294 -35 -287 -33 -350 -82 -31 -24 -92 -68 -136 -97 -44
-30 -103 -75 -130 -101 -37 -35 -71 -55 -125 -75 -151 -54 -258 -117 -379
-223 -44 -39 -86 -71 -94 -71 -17 0 -99 -42 -180 -92 l-57 -36 -38 18 c-47 23
-122 87 -122 105 0 7 13 15 29 18 46 10 267 94 356 136 136 65 155 93 44 67
-82 -19 -218 -71 -354 -135 l-108 -51 -39 35 c-21 20 -54 43 -72 52 -19 8 -40
30 -48 47 -27 55 -136 194 -205 261 -37 36 -108 95 -158 130 -102 72 -110 80
-148 146 -14 25 -63 88 -109 140 -46 51 -100 117 -120 145 -44 59 -49 62 -288
155 -102 40 -206 82 -231 95 -44 22 -47 22 -63 6 -20 -23 -135 -22 -216 2 -76
22 -194 19 -325 -9z m435 -80 c178 -8 393 -91 520 -203 44 -38 54 -43 74 -35
20 10 28 3 82 -66 34 -42 69 -91 78 -108 10 -21 34 -42 64 -57 49 -25 109 -84
203 -202 39 -49 70 -77 102 -92 39 -18 58 -40 136 -154 50 -73 120 -169 156
-213 36 -44 65 -83 65 -86 0 -4 -10 -9 -22 -13 -18 -4 -36 7 -88 58 -36 35
-119 104 -185 153 -122 92 -176 144 -253 247 -34 46 -56 64 -105 86 -44 20
-84 50 -137 105 -100 102 -226 194 -330 242 -60 28 -106 58 -150 100 -67 61
-107 89 -117 79 -4 -3 -29 7 -57 23 -73 42 -151 66 -316 96 -79 14 -146 28
-148 30 -24 24 71 26 428 10z m3570 -612 c52 -14 131 -34 175 -45 92 -23 109
-30 104 -43 -2 -5 -33 -7 -69 -5 -112 8 -312 5 -386 -7 -49 -7 -93 -23 -137
-47 -44 -25 -91 -41 -146 -51 -96 -17 -248 -78 -343 -139 -45 -29 -87 -48
-117 -52 -58 -8 -78 -19 -174 -92 -54 -41 -112 -73 -185 -102 -152 -62 -257
-115 -300 -154 -24 -21 -51 -35 -77 -39 -22 -3 -48 -8 -57 -12 -13 -5 -18 -2
-18 9 0 9 21 26 48 40 85 43 220 146 385 292 41 37 69 53 97 58 22 3 66 25
102 51 154 109 183 126 221 132 27 4 55 19 86 47 25 23 70 58 99 80 43 31 55
36 67 26 12 -10 26 -8 74 14 106 47 145 58 246 66 125 9 185 4 305 -27z
m-1989 -694 c46 -41 57 -55 48 -65 -9 -11 -19 -7 -52 22 -23 19 -53 37 -67 41
-14 3 -31 11 -38 16 -11 9 -11 13 4 24 29 21 42 16 105 -38z m-132 -130 c28
-31 51 -61 51 -65 -1 -12 -98 -120 -103 -114 -34 45 -86 144 -80 154 15 25 68
84 74 83 4 -1 29 -27 58 -58z m312 -5 c11 -14 9 -20 -21 -44 l-34 -28 -22 31
-22 32 22 12 c30 17 61 16 77 -3z m-177 -133 l28 -29 -24 -17 c-13 -9 -50 -34
-83 -55 -54 -36 -61 -38 -72 -23 -7 9 -13 20 -13 24 0 10 117 129 127 129 5 0
22 -13 37 -29z m306 -43 c35 -63 37 -79 9 -104 -20 -18 -21 -18 -75 38 -30 31
-54 60 -54 65 0 7 66 50 82 52 4 1 21 -23 38 -51z m-579 -65 c11 -21 8 -28
-37 -77 -27 -30 -54 -54 -60 -55 -6 -1 -22 28 -36 63 l-25 63 35 58 35 57 38
-44 c21 -23 43 -53 50 -65z m450 -90 c16 -23 29 -46 29 -51 0 -5 -20 -17 -45
-26 -24 -10 -60 -28 -80 -42 l-36 -24 -60 52 c-32 29 -59 56 -59 59 0 8 84 80
134 116 l31 22 28 -32 c16 -18 42 -51 58 -74z m-383 4 c3 -14 -15 -41 -78
-120 -4 -4 -14 1 -23 11 -17 18 -15 22 29 76 47 56 66 65 72 33z m616 -73 c14
-37 23 -71 20 -75 -12 -19 -25 -6 -54 52 -25 48 -29 64 -19 75 19 23 26 17 53
-52z m-892 10 c24 -25 44 -50 46 -55 5 -13 -91 -120 -99 -112 -5 5 -19 33 -33
64 l-25 57 29 46 c16 25 32 46 35 46 2 0 24 -21 47 -46z m392 -101 c20 -32 36
-62 36 -69 0 -6 -11 -16 -25 -22 -14 -7 -30 -23 -35 -37 -5 -14 -11 -25 -14
-25 -2 0 -22 25 -45 55 l-42 56 37 49 c21 28 41 50 45 50 4 0 24 -26 43 -57z
m361 -3 c14 -27 25 -51 25 -53 0 -6 -128 -97 -136 -97 -5 0 -20 16 -34 36
l-24 37 67 63 c37 35 69 64 72 64 3 0 16 -22 30 -50z m-624 -23 c9 -20 5 -34
-26 -90 -20 -37 -40 -67 -43 -67 -4 0 -20 10 -35 23 l-28 22 51 68 c28 37 55
67 61 67 5 0 14 -10 20 -23z m838 -104 c11 -36 18 -70 15 -75 -12 -19 -22 -4
-39 54 -9 34 -19 68 -22 75 -3 7 2 13 10 13 11 0 23 -21 36 -67z m-1667 -19
c26 -19 51 -52 84 -113 25 -47 84 -145 131 -218 l85 -132 -30 -77 -29 -76 -36
64 c-19 34 -92 173 -161 306 -101 194 -124 247 -115 258 16 20 28 18 71 -12z
m925 -43 l22 -39 -22 -46 -23 -47 -32 34 c-17 18 -32 38 -32 45 0 14 50 92 59
92 3 0 16 -18 28 -39z m616 -23 l15 -46 -55 -36 c-58 -38 -80 -37 -102 2 -8
14 2 29 52 79 34 35 64 59 68 55 3 -4 13 -28 22 -54z m-809 -1 c7 -11 4 -29
-14 -66 -13 -28 -26 -51 -30 -51 -11 0 -44 80 -43 102 1 11 10 29 19 39 15 17
20 17 38 6 11 -8 24 -21 30 -30z m490 -1 l19 -35 -34 -40 c-19 -22 -36 -40
-39 -40 -3 0 -16 18 -28 40 l-24 41 38 39 c20 21 40 36 43 34 3 -2 15 -19 25
-39z m-589 -196 c4 -28 -1 -47 -27 -90 l-31 -55 -29 60 c-15 33 -28 68 -28 78
0 10 19 48 42 85 l43 67 12 -55 c7 -30 15 -71 18 -90z m2597 89 c36 -14 65
-19 89 -15 30 5 40 1 60 -20 13 -14 74 -63 134 -109 146 -109 193 -166 210
-257 6 -31 4 -38 -15 -48 -38 -20 -63 -8 -91 44 -20 36 -39 55 -77 76 -28 15
-93 61 -146 103 -102 80 -106 82 -237 91 -42 3 -87 10 -100 14 -19 8 -32 4
-67 -21 -41 -30 -45 -30 -88 -19 -64 17 -82 15 -117 -14 -16 -14 -62 -41 -101
-61 -97 -49 -135 -76 -262 -189 -138 -123 -194 -149 -194 -90 0 27 215 242
345 345 99 79 145 100 213 101 44 0 58 5 79 26 25 25 31 26 118 25 72 -2 100
2 135 18 55 25 49 25 112 0z m-1642 -94 c-7 -8 -21 -15 -31 -15 -15 0 -19 7
-19 38 0 21 8 49 17 62 l17 24 15 -46 c12 -39 12 -50 1 -63z m152 30 c14 -58
8 -115 -11 -115 -12 0 -34 146 -26 171 10 29 20 14 37 -56z m-684 0 c28 -44
28 -53 -7 -94 l-28 -34 -27 46 -27 46 28 36 c15 19 30 35 33 35 3 0 15 -16 28
-35z m266 -2 l17 -36 -44 -44 -43 -44 -19 41 -18 41 38 39 c22 22 42 40 45 40
4 0 14 -17 24 -37z m956 -18 c10 -12 -19 -48 -166 -210 -97 -107 -179 -193
-181 -191 -2 2 -10 27 -18 56 l-14 52 142 140 c160 159 207 189 237 153z
m-1791 -116 c16 -47 13 -94 -8 -120 -17 -21 -22 -22 -45 -11 -15 6 -29 18 -32
26 -6 16 53 136 66 136 5 0 13 -14 19 -31z m1157 -46 c6 -46 4 -50 -35 -87
l-40 -39 -11 27 c-24 64 -23 75 7 100 16 13 35 36 43 50 11 22 15 24 22 11 5
-8 11 -36 14 -62z m-481 5 c14 -26 13 -31 -18 -87 l-33 -60 -20 52 c-10 28
-20 54 -22 57 -1 3 12 25 29 49 34 45 34 45 64 -11z m-245 -18 c28 -54 25 -74
-17 -138 l-37 -56 -20 45 c-11 24 -20 58 -20 75 0 35 50 127 65 119 5 -4 18
-24 29 -45z m495 -14 c14 -33 14 -36 -26 -95 -22 -34 -44 -61 -48 -61 -4 0
-15 26 -24 57 -17 64 -14 78 36 131 34 35 34 35 62 -32z m-716 17 c0 -21 -8
-60 -18 -88 l-18 -50 -22 42 -21 42 32 45 c18 25 36 45 41 45 4 1 7 -16 6 -36z
m1100 -48 c12 -60 12 -68 -4 -85 -10 -11 -21 -17 -25 -15 -4 2 -13 32 -19 66
-11 54 -10 63 5 80 9 10 20 19 24 19 3 0 12 -29 19 -65z m-1746 5 c33 -29 86
-126 137 -253 22 -54 23 -61 11 -120 -24 -115 -27 -115 -89 9 -66 131 -99 218
-117 302 -21 98 -3 116 58 62z m333 -142 c40 -80 54 -124 71 -238 21 -137 20
-154 -10 -222 l-26 -57 -28 14 c-25 13 -29 13 -40 -2 -17 -23 -16 -58 3 -95
15 -28 14 -31 -4 -52 -12 -13 -21 -41 -24 -73 -4 -37 -16 -70 -40 -110 -31
-50 -36 -69 -40 -132 -3 -63 -7 -76 -28 -93 l-25 -20 -14 46 c-13 40 -12 55 4
131 16 77 19 84 34 71 23 -20 59 -4 67 30 4 16 1 48 -6 73 -23 81 -23 99 -2
133 10 18 36 60 56 92 34 57 47 106 26 106 -15 0 -78 -59 -97 -91 -10 -16 -20
-29 -23 -29 -3 0 -13 26 -22 58 -17 57 -17 57 10 130 14 39 29 72 32 72 3 -1
17 -19 32 -40 34 -49 53 -51 68 -4 14 43 8 81 -25 153 -14 30 -23 61 -21 70 3
9 12 42 21 74 9 31 18 57 21 57 2 0 15 -23 30 -52z m182 16 c12 -8 29 -29 38
-46 15 -30 15 -33 -22 -116 l-38 -86 -13 44 c-20 69 -27 173 -14 198 14 26 20
27 49 6z m681 -92 c1 -13 -16 -41 -41 -68 l-43 -46 -12 28 c-19 45 -16 56 34
124 l48 64 7 -40 c4 -21 7 -49 7 -62z m221 -2 c-18 -54 -47 -100 -63 -100 -13
0 -47 59 -47 83 0 6 24 35 53 65 l52 53 9 -31 c6 -21 5 -43 -4 -70z m-1895
-26 c13 -28 35 -91 50 -140 14 -49 36 -118 48 -153 l21 -63 -23 -19 c-19 -15
-27 -17 -38 -7 -33 27 -66 104 -94 218 -16 68 -39 140 -49 161 -25 47 -25 67
-3 92 17 18 18 18 41 -10 13 -15 34 -51 47 -79z m2263 34 l10 -63 -69 -69
c-73 -74 -106 -136 -95 -181 l7 -26 30 18 c17 10 55 44 85 76 l54 58 0 -76 0
-76 -50 -60 c-28 -34 -64 -87 -80 -120 -17 -32 -32 -59 -34 -59 -2 0 -16 91
-31 203 l-28 203 27 45 c44 73 54 83 69 71 24 -20 57 13 57 57 0 34 14 61 31
61 3 0 11 -28 17 -62z m-834 7 l15 -46 -32 -45 -31 -45 -19 36 -18 36 33 54
c18 30 34 55 35 55 0 0 8 -20 17 -45z m2239 16 c30 -11 69 -27 88 -36 51 -26
159 -107 159 -119 0 -29 -61 -218 -84 -262 -16 -30 -26 -65 -26 -91 0 -113
-38 -193 -92 -193 -30 0 -31 1 -25 41 3 23 19 61 37 85 17 24 37 59 45 78 21
50 19 173 -6 276 l-20 88 -67 31 c-107 49 -120 49 -198 5 -57 -32 -78 -38
-135 -40 -37 -1 -76 -7 -87 -13 -31 -16 -95 -93 -171 -205 -38 -55 -84 -117
-103 -137 -32 -35 -158 -144 -158 -137 0 9 43 115 61 149 11 22 47 65 80 97
33 31 83 94 111 140 56 93 118 148 231 208 123 64 240 76 360 35z m-2447 -36
c3 -11 -7 -47 -21 -79 l-26 -59 -24 34 c-14 18 -25 38 -25 45 0 7 14 36 32 64
30 48 33 50 45 33 8 -10 16 -27 19 -38z m844 29 c0 -8 -4 -12 -10 -9 -5 3 -10
13 -10 21 0 8 5 12 10 9 6 -3 10 -13 10 -21z m470 6 c0 -12 -10 -40 -21 -63
-24 -47 -101 -156 -110 -157 -4 0 -9 23 -13 50 -4 28 -9 56 -12 63 -6 18 58
91 98 110 44 22 58 21 58 -3z m-2340 -55 c16 -23 50 -102 74 -174 25 -73 52
-141 60 -152 12 -18 11 -25 -12 -66 -25 -46 -26 -46 -36 -22 -5 13 -40 87 -78
164 -75 155 -99 238 -80 279 15 33 34 26 72 -29z m177 6 c58 -36 106 -146 139
-316 16 -86 14 -185 -4 -185 -4 0 -13 24 -19 53 -7 28 -29 84 -50 122 -104
197 -105 202 -111 274 -2 39 -1 71 4 71 5 0 23 -9 41 -19z m1559 -159 l15 -53
-32 -44 c-18 -25 -36 -45 -39 -45 -4 0 -10 26 -14 58 -7 59 -2 80 32 152 16
33 17 34 20 10 2 -14 10 -49 18 -78z m-837 4 c1 -16 6 -45 12 -66 10 -31 8
-42 -9 -76 -43 -83 -45 -83 -71 -9 l-24 66 39 76 c39 78 52 80 53 9z m217 -35
l15 -54 -41 -39 c-23 -22 -43 -38 -44 -37 -2 2 -11 28 -20 57 l-18 52 38 51
c41 57 44 56 70 -30z m410 -10 c4 -19 -4 -40 -27 -75 l-33 -49 -12 59 c-11 56
-11 61 14 108 l27 49 13 -33 c7 -18 15 -44 18 -59z m-218 44 c9 -31 7 -44 -12
-87 l-22 -50 -21 50 -21 50 26 36 c14 20 28 36 32 36 4 0 12 -16 18 -35z
m1042 -38 c0 -25 -59 -132 -88 -160 l-29 -28 -7 63 -8 63 41 37 c40 38 91 52
91 25z m170 -34 c0 -46 -36 -104 -132 -213 -51 -58 -100 -117 -109 -130 l-17
-25 -12 44 c-11 41 -10 45 13 70 14 14 52 67 85 116 60 92 130 165 157 165 10
0 15 -10 15 -27z m193 -30 c-3 -10 -19 -32 -34 -50 -15 -17 -49 -71 -75 -119
-26 -49 -70 -111 -97 -139 l-48 -50 -20 24 c-10 12 -16 28 -11 35 156 242 177
271 221 313 42 41 45 42 58 24 7 -11 10 -28 6 -38z m-1323 -128 c0 -11 -41
-35 -61 -35 -14 0 -2 57 18 89 l15 24 14 -33 c8 -18 14 -38 14 -45z m219 -17
c1 -9 -17 -47 -39 -85 -22 -37 -40 -60 -40 -50 0 10 -9 35 -19 56 l-20 38 41
68 42 69 17 -39 c10 -22 18 -48 18 -57z m206 -7 c5 -23 4 -31 -4 -27 -6 4 -11
16 -11 26 0 34 -18 31 -54 -12 -20 -23 -36 -46 -36 -50 0 -5 -4 -6 -10 -3 -18
11 -10 32 37 96 l47 64 12 -30 c6 -17 15 -45 19 -64z m-644 -62 l-29 -39 -21
26 c-12 15 -21 32 -21 39 0 14 35 97 46 108 4 3 17 -16 30 -44 l23 -50 -28
-40z m-202 76 c6 -25 9 -50 6 -56 -8 -12 -42 -12 -50 1 -9 14 15 111 25 105 4
-2 13 -25 19 -50z m-176 -125 c5 -34 4 -41 -4 -27 -5 9 -14 15 -18 12 -12 -7
-24 80 -15 108 6 20 8 19 19 -13 7 -19 15 -55 18 -80z m-848 70 c10 -11 20
-41 23 -68 4 -41 0 -52 -23 -80 -45 -54 -65 -37 -65 56 0 42 25 112 40 112 4
0 15 -9 25 -20z m1390 -48 c-1 -28 -4 -55 -8 -59 -20 -20 -45 80 -26 103 21
26 34 9 34 -44z m-945 41 c0 -5 5 -41 10 -81 7 -56 6 -89 -5 -145 -24 -113
-25 -115 -40 -86 -8 13 -19 53 -25 88 -11 60 -10 69 16 147 16 46 32 84 36 84
4 0 8 -3 8 -7z m1720 -47 c0 -10 -15 -48 -34 -85 -19 -36 -45 -91 -57 -121
-28 -68 -57 -112 -70 -105 -20 13 -9 105 23 186 30 75 48 101 110 155 15 13
28 0 28 -30z m-1200 -19 c0 -18 -2 -19 -10 -7 -13 20 -13 43 0 35 6 -3 10 -16
10 -28z m-1106 -148 c3 -19 -5 -3 -19 35 -14 39 -25 77 -24 85 1 20 35 -75 43
-120z m397 26 c16 -36 17 -54 9 -164 -6 -68 -12 -126 -14 -128 -5 -5 -42 136
-55 211 -12 67 -14 129 -5 164 6 22 7 22 27 -10 11 -18 28 -51 38 -73z m838
-17 c5 -29 21 -99 35 -155 14 -56 26 -112 26 -125 0 -13 -13 -56 -29 -96 l-28
-73 -16 58 c-10 36 -14 77 -10 109 5 51 -19 130 -37 119 -7 -4 -50 148 -50
178 0 7 17 33 37 57 l37 43 13 -31 c7 -17 17 -55 22 -84z m794 -17 c-11 -124
-6 -144 32 -151 43 -7 46 -55 9 -118 -16 -26 -37 -66 -49 -90 l-21 -43 -12
118 c-7 65 -17 122 -21 126 -16 16 -45 -44 -49 -102 -2 -31 3 -102 12 -157 9
-56 16 -128 16 -160 0 -103 -55 -287 -105 -357 -16 -21 -16 -15 -10 88 4 61
10 126 15 145 5 19 11 59 15 88 6 42 4 52 -8 52 -18 0 -31 77 -31 180 1 107 9
140 56 211 44 68 69 125 89 202 6 26 21 59 32 73 31 40 40 11 30 -105z m-392
38 c3 -51 -1 -74 -16 -103 -20 -36 -30 -41 -59 -30 -12 5 -13 10 -5 25 5 10 9
34 7 52 -2 35 50 143 63 130 4 -5 9 -38 10 -74z m-196 -23 c-3 -17 -9 -47 -12
-66 -5 -36 -30 -73 -43 -65 -4 2 -13 25 -20 50 -11 40 -10 51 10 106 l24 62
24 -28 c18 -22 22 -35 17 -59z m401 28 c-8 -61 -21 -77 -50 -62 -11 6 -23 12
-25 14 -5 4 68 94 76 94 3 0 3 -21 -1 -46z m772 -43 c3 -42 -30 -131 -49 -131
-18 0 -41 62 -35 95 7 37 50 89 69 82 6 -2 13 -23 15 -46z m-1797 -17 c0 -27
5 -72 10 -101 9 -48 6 -64 -46 -235 -86 -281 -118 -423 -104 -465 6 -19 11
-56 11 -81 0 -58 -45 -276 -55 -266 -10 11 -9 50 4 77 9 19 7 41 -5 95 -29
128 -15 466 25 602 20 71 152 430 156 426 2 -1 3 -25 4 -52z m219 -74 c0 -14
-15 -51 -33 -82 l-32 -57 -19 65 c-17 60 -18 67 -3 102 9 20 22 51 28 67 l11
30 24 -50 c13 -27 24 -61 24 -75z m-819 47 c10 -23 19 -51 19 -62 0 -12 7 -48
16 -80 28 -110 35 -205 69 -990 8 -177 10 -187 43 -183 24 3 27 -1 35 -41 5
-25 6 -69 2 -100 l-7 -56 -15 30 -16 29 -23 -30 c-32 -39 -47 -99 -40 -154 11
-75 19 -205 12 -199 -13 12 -39 268 -37 371 1 105 -7 167 -30 224 -14 35 -21
319 -8 351 5 15 3 34 -6 57 -10 24 -15 71 -15 145 0 75 -6 136 -20 193 -14 59
-20 118 -20 204 0 105 -3 128 -25 182 -29 71 -31 101 -10 143 14 25 18 28 36
18 11 -6 29 -29 40 -52z m2140 -37 c3 -40 0 -62 -10 -56 -12 8 -24 74 -15 87
9 15 22 -1 25 -31z m353 -2 c-57 -97 -118 -182 -83 -115 18 33 81 127 86 127
2 0 1 -6 -3 -12z m-1008 -219 c-30 -62 -56 -106 -58 -98 -8 20 -65 -36 -77
-75 -5 -17 -13 -78 -16 -136 -7 -133 -11 -148 -46 -223 l-28 -62 -1 106 c0 69
5 121 15 148 8 23 12 54 9 70 -4 17 1 41 10 60 9 17 30 70 47 118 46 130 103
248 130 266 22 16 23 15 45 -23 l23 -40 -53 -111z m-210 94 c10 -52 9 -63 -12
-108 -12 -27 -26 -59 -30 -70 -5 -16 -10 -11 -24 30 -10 28 -19 61 -19 73 -1
22 57 132 69 132 3 0 10 -26 16 -57z m790 -10 c5 -36 1 -49 -29 -100 -19 -32
-40 -75 -47 -96 -7 -21 -14 -36 -17 -33 -13 13 -20 90 -11 129 5 23 10 49 12
58 1 9 16 33 34 55 18 21 32 43 32 49 1 23 20 -23 26 -62z m225 -20 c-9 -15
-10 -11 -11 19 0 54 14 83 18 36 2 -21 -1 -46 -7 -55z m-2011 25 c0 -30 -25
-15 -28 17 -3 25 -2 27 12 16 9 -8 16 -22 16 -33z m-785 -83 c16 -36 20 -145
8 -256 l-6 -63 -18 75 c-10 40 -18 84 -19 96 0 12 -16 51 -35 87 -39 74 -42
92 -19 125 l16 23 29 -28 c15 -15 35 -42 44 -59z m1391 19 c4 -29 -4 -64 -34
-143 -21 -57 -41 -100 -44 -95 -3 5 -9 34 -12 65 -7 54 -2 77 50 228 8 25 35
-11 40 -55z m-211 -159 c6 -79 4 -100 -20 -179 -35 -120 -41 -129 -55 -91 -6
16 -18 38 -27 47 -13 15 -14 27 -4 85 7 37 19 88 27 113 19 54 40 124 50 165
l7 30 8 -40 c4 -22 11 -80 14 -130z m1520 113 c7 -59 -22 -184 -57 -248 l-19
-35 6 124 c4 100 9 132 27 167 12 24 25 44 29 44 4 0 10 -24 14 -52z m-1931
-427 c-10 -68 -14 -137 -11 -171 5 -45 3 -59 -8 -63 -10 -4 -17 8 -26 46 -10
45 -8 69 10 164 l21 111 -20 43 c-30 67 -27 174 7 269 l28 75 8 -180 c6 -146
5 -201 -9 -294z m-404 385 c0 -28 -1 -29 -15 -10 -8 10 -14 33 -14 49 0 29 0
29 14 11 8 -11 15 -33 15 -50z m2026 -269 c-21 -27 -29 -55 -41 -148 -8 -63
-22 -136 -29 -164 l-14 -50 -1 58 c-1 79 34 294 60 364 43 115 44 115 47 40 3
-59 0 -71 -22 -100z m-372 -79 c-9 -27 -24 -82 -34 -121 l-18 -72 2 130 c2
115 6 140 32 212 l29 82 3 -91 c2 -64 -2 -105 -14 -140z m-426 -36 c-31 -71
-33 -73 -39 -46 -16 70 -9 115 29 200 l37 85 3 -82 c3 -75 0 -89 -30 -157z
m-154 70 c5 -14 2 -34 -8 -54 -9 -17 -16 -41 -16 -53 0 -22 -37 -138 -61 -188
-29 -63 -41 57 -14 138 10 27 13 59 10 79 -5 23 -2 42 9 57 8 13 20 47 26 74
6 28 16 64 23 80 11 29 12 27 18 -40 3 -38 9 -80 13 -93z m1121 23 c-7 -38
-39 -80 -53 -71 -7 4 -1 37 21 99 l32 92 3 -45 c2 -24 1 -58 -3 -75z m-2176
-12 c0 -76 -3 -93 -11 -76 -10 20 -3 173 8 173 2 0 4 -44 3 -97z m-151 -78 c0
-49 -4 -101 -8 -115 -5 -15 -8 31 -8 115 0 84 3 130 8 115 4 -14 8 -65 8 -115z
m-221 63 c-3 -7 -5 -2 -5 12 0 14 2 19 5 13 2 -7 2 -19 0 -25z m390 -273 c4
-97 2 -163 -8 -215 l-13 -75 -9 164 c-10 180 -2 335 15 291 5 -14 12 -88 15
-165z m808 108 c4 -31 2 -66 -4 -85 -6 -18 -15 -66 -20 -107 -7 -51 -16 -80
-30 -95 -12 -12 -21 -31 -21 -41 0 -14 -3 -16 -11 -8 -7 7 -10 53 -8 135 3
105 7 128 26 158 11 19 27 54 34 78 15 50 24 41 34 -35z m1340 45 c-3 -13 -14
-40 -23 -62 -13 -30 -17 -35 -22 -20 -4 11 3 35 19 61 30 48 35 53 26 21z m96
-84 c-11 -44 -25 -109 -31 -146 -5 -36 -21 -88 -35 -115 -16 -31 -29 -77 -34
-128 -5 -44 -14 -92 -20 -107 -17 -44 -63 -108 -73 -102 -14 9 -1 53 29 97 22
31 29 60 40 150 13 108 27 157 109 380 35 93 42 79 15 -29z m-1030 -504 c-27
-107 -52 -208 -56 -225 -7 -28 -8 -29 -16 -8 -5 14 -2 36 8 62 15 38 15 44 -2
81 -18 40 -18 42 10 173 15 73 38 155 51 182 13 28 26 70 29 95 15 115 20 109
23 -25 3 -138 2 -141 -47 -335z m428 400 c-14 -86 -12 -246 3 -277 12 -25 11
-38 -15 -118 -24 -76 -30 -117 -37 -265 -14 -260 -30 -409 -50 -466 -34 -100
-39 -98 -40 16 -1 58 -5 114 -9 125 -5 11 -4 29 2 39 5 11 9 49 8 84 -1 42 7
96 24 160 20 71 25 108 20 141 -21 150 8 353 81 574 9 27 17 47 19 45 2 -2 -1
-28 -6 -58z m-1855 -53 l-8 -52 -7 40 c-4 22 -8 58 -8 80 l0 40 15 -28 c12
-22 14 -42 8 -80z m2226 21 c-6 -40 -25 -113 -42 -162 -24 -73 -29 -101 -26
-150 3 -34 1 -68 -3 -76 -12 -24 -47 -150 -58 -210 -6 -30 -10 -91 -9 -135 1
-119 -59 -343 -119 -447 -25 -43 -47 -78 -49 -78 -2 0 -2 17 1 38 2 20 12 98
21 172 10 80 23 145 32 160 12 18 15 46 13 105 -2 73 1 86 32 150 18 39 37 85
40 103 9 45 -11 125 -29 118 -10 -4 -13 6 -13 44 2 57 27 104 49 90 34 -22 35
-19 131 262 19 53 35 95 37 93 2 -2 -1 -37 -8 -77z m-545 -47 c-3 -31 -15 -82
-26 -114 -10 -31 -19 -69 -19 -85 0 -15 -9 -58 -19 -97 l-19 -70 -2 60 c-1 33
-5 86 -9 119 -6 47 -3 71 14 121 23 69 64 137 78 128 5 -3 6 -31 2 -62z m-426
-165 c-7 -44 -12 -135 -11 -201 2 -100 -2 -137 -24 -225 -14 -58 -31 -113 -36
-124 -24 -45 -28 8 -20 235 9 228 10 238 48 379 l39 145 9 -64 c7 -45 5 -87
-5 -145z m-1226 19 c5 -107 4 -117 -8 -90 -8 17 -14 51 -15 76 0 45 10 142 15
137 1 -2 5 -57 8 -123z m542 59 c0 -45 -3 -59 -15 -59 -19 0 -33 80 -19 107
19 35 34 14 34 -48z m-663 -124 c-7 -35 -11 -41 -17 -27 -4 11 -2 44 6 75 11
47 14 52 16 27 2 -16 -1 -50 -5 -75z m1133 58 c4 -13 9 -126 12 -253 4 -176 2
-239 -9 -269 -45 -133 -88 78 -54 269 9 50 16 118 16 151 0 104 18 155 35 102z
m959 -33 c-4 -8 -8 -15 -10 -15 -2 0 -4 7 -4 15 0 8 4 15 10 15 5 0 7 -7 4
-15z m-1817 -27 c-3 -8 -6 -5 -6 6 -1 11 2 17 5 13 3 -3 4 -12 1 -19z m22
-172 c-1 -28 -4 -64 -8 -81 l-7 -30 -18 47 c-15 39 -17 61 -11 124 l7 77 19
-43 c12 -26 19 -62 18 -94z m618 77 c-3 -10 -5 -4 -5 12 0 17 2 24 5 18 2 -7
2 -21 0 -30z m-792 -83 l-15 -45 6 55 c3 30 8 66 12 80 6 23 7 22 10 -10 1
-19 -4 -55 -13 -80z m1551 -45 c-17 -68 -26 -80 -26 -37 0 30 29 106 37 98 2
-2 -3 -30 -11 -61z m-879 -17 c-2 -13 -4 -5 -4 17 -1 22 1 32 4 23 2 -10 2
-28 0 -40z m953 -154 c-11 -33 -27 -106 -35 -164 -16 -111 -35 -204 -41 -197
-6 5 24 241 36 289 24 93 54 173 58 152 2 -12 -6 -48 -18 -80z m580 -44 c-18
-34 -21 -18 -7 46 l12 59 3 -42 c2 -23 -2 -52 -8 -63z m-1516 -28 c15 -28 14
-31 -13 -67 l-28 -38 20 -56 c22 -61 30 -203 12 -219 -5 -6 -20 -13 -32 -16
-30 -9 -32 5 -35 179 -3 123 0 151 22 231 24 89 25 90 32 53 4 -20 14 -51 22
-67z m736 27 c-10 -82 -50 -263 -56 -256 -2 2 5 48 15 103 11 54 25 130 31
167 16 89 23 80 10 -14z m-131 -151 c-10 -55 -22 -104 -25 -107 -3 -3 -3 10 0
29 3 19 8 59 11 89 5 48 19 91 29 91 2 0 -5 -46 -15 -102z m-301 50 c7 -7 12
-37 12 -67 0 -57 -18 -214 -27 -241 -11 -30 -24 46 -30 173 -5 104 -3 131 8
138 18 12 23 11 37 -3z m1142 -238 c-10 -52 -21 -125 -25 -162 l-7 -67 49 -23
c53 -26 53 -27 40 -143 -3 -27 -6 -53 -7 -56 0 -4 -34 -53 -76 -110 l-77 -104
6 125 c3 71 16 179 31 250 14 69 32 168 40 220 16 96 35 175 41 168 1 -1 -5
-46 -15 -98z m-1040 -153 c-16 -55 -24 -39 -15 30 6 51 8 55 17 33 6 -17 6
-38 -2 -63z m-206 -13 c3 -9 6 -40 6 -69 0 -29 5 -76 12 -104 11 -48 10 -53
-12 -76 -13 -14 -28 -25 -33 -25 -5 0 -6 31 -2 73 4 44 3 89 -4 113 -16 59 14
138 33 88z m723 -61 c-2 -16 -4 -3 -4 27 0 30 2 43 4 28 2 -16 2 -40 0 -55z
m-196 -23 c10 -45 -1 -106 -28 -147 -17 -26 -33 -16 -33 21 0 27 41 178 47
172 3 -2 9 -23 14 -46z m157 -166 c-3 -46 -11 -72 -31 -103 -43 -65 -50 -55
-43 62 6 93 9 104 33 126 l27 23 9 -23 c5 -13 7 -52 5 -85z m-320 -168 c-4
-66 -23 -70 -49 -11 -24 55 -20 98 14 141 l22 28 8 -54 c4 -30 6 -77 5 -104z
m482 92 c6 -29 13 -63 16 -75 3 -15 -5 -29 -28 -48 l-32 -27 -9 24 c-14 38 11
178 33 178 4 0 13 -24 20 -52z m-850 -36 c0 -24 -5 -53 -12 -65 -11 -20 -13
-16 -24 42 -9 49 -9 69 0 83 10 17 12 17 24 1 6 -9 12 -37 12 -61z m1027 -54
c1 -13 5 -104 9 -203 7 -179 1 -275 -16 -275 -17 0 -40 46 -61 121 -26 90 -21
189 11 264 12 28 28 65 35 83 17 38 19 39 22 10z m-497 -155 c0 -99 -2 -114
-32 -180 -17 -40 -35 -73 -38 -73 -12 0 -27 86 -19 106 4 10 8 36 8 57 1 21 8
52 17 69 9 17 22 52 30 79 8 27 19 49 24 49 6 0 10 -45 10 -107z m-204 22 c8
-31 -5 -137 -15 -130 -10 5 -23 134 -15 146 10 17 24 9 30 -16z m384 -132 c10
-58 9 -66 -14 -110 -14 -27 -35 -61 -46 -78 l-22 -30 5 35 c3 19 -2 50 -9 69
-21 50 -18 64 28 154 38 74 43 79 45 52 2 -16 8 -58 13 -92z m-635 43 c-11
-55 -65 -115 -65 -71 0 8 12 39 27 70 29 59 49 60 38 1z m319 -196 c15 -102
13 -111 -45 -188 l-17 -23 -10 48 c-9 42 -8 51 14 88 19 33 24 56 24 112 0 38
3 73 8 77 8 9 8 11 26 -114z m162 -94 c-4 -86 -8 -98 -39 -147 -19 -30 -49
-83 -66 -119 -41 -81 -62 -107 -73 -87 -4 8 -10 39 -14 70 -6 51 -4 58 27 103
l34 49 6 -38 c3 -20 9 -40 12 -44 14 -13 47 83 47 136 0 41 7 67 32 112 18 33
34 59 35 59 2 0 1 -42 -1 -94z"/>
<path d="M8670 11862 c-45 -12 -69 -13 -136 -3 -107 15 -108 15 -143 -15 -25
-20 -34 -23 -50 -14 -12 6 -33 8 -48 4 -30 -7 -153 -72 -153 -80 0 -3 17 -3
38 0 20 4 125 11 232 16 107 5 229 16 271 24 92 18 136 13 354 -44 152 -39
492 -146 570 -180 23 -10 64 -35 91 -56 27 -20 83 -53 124 -72 293 -135 294
-136 412 -253 61 -61 129 -122 150 -137 35 -22 39 -30 34 -54 -5 -25 3 -38 69
-104 125 -126 299 -411 395 -646 13 -32 27 -58 32 -58 15 0 8 60 -11 98 -10
20 -37 85 -59 144 -43 115 -101 213 -177 298 -78 88 -134 169 -180 261 -47 93
-93 142 -168 178 -28 14 -91 67 -164 141 -111 111 -121 118 -167 125 -68 9
-91 22 -107 58 -12 28 -20 33 -65 38 -59 7 -74 14 -74 34 0 25 -29 43 -79 50
-50 7 -65 18 -86 58 -12 25 -75 46 -360 118 -209 52 -405 90 -458 88 -18 -1
-57 -8 -87 -17z"/>
<path d="M3404 11699 c-23 -7 -35 -19 -47 -50 -10 -26 -12 -37 -4 -32 115 88
125 104 51 82z"/>
<path d="M9720 11690 c-21 -13 6 -59 39 -66 14 -4 63 -26 107 -49 45 -24 108
-51 140 -61 44 -12 75 -31 124 -73 36 -31 124 -104 195 -161 169 -135 311
-274 391 -380 79 -105 169 -278 269 -520 43 -102 101 -235 130 -297 56 -117
164 -308 171 -300 2 2 -14 43 -36 91 -22 48 -75 169 -116 269 -75 179 -153
345 -236 502 -24 44 -56 112 -73 150 -72 170 -246 373 -421 489 -50 33 -107
82 -129 109 -54 67 -166 139 -267 172 -56 19 -107 45 -157 81 -72 53 -101 63
-131 44z"/>
<path d="M8210 11670 c-99 -11 -250 -40 -275 -53 -18 -9 -227 -163 -265 -195
-18 -15 228 70 388 134 l116 46 146 1 c128 0 151 -2 194 -22 l49 -21 24 21 23
22 61 -18 c34 -10 66 -26 71 -35 9 -13 30 -16 142 -14 118 2 133 0 152 -17 16
-15 34 -19 70 -18 38 1 75 -9 159 -43 61 -24 155 -62 210 -82 55 -21 169 -72
253 -113 118 -57 166 -87 215 -131 34 -32 129 -113 210 -181 82 -68 166 -140
188 -162 47 -47 49 -41 8 30 -42 73 -114 143 -224 218 -73 49 -96 71 -119 112
-16 30 -34 51 -44 51 -43 2 -98 32 -135 75 -44 51 -83 75 -123 75 -15 0 -59
20 -98 44 -90 56 -188 95 -396 157 -91 27 -216 68 -278 91 -92 34 -117 39
-130 30 -43 -30 -64 -33 -141 -17 -89 19 -341 28 -451 15z"/>
<path d="M6246 11562 c-3 -5 47 -61 112 -124 64 -63 146 -146 182 -184 123
-132 350 -268 350 -210 0 18 -76 95 -263 269 -190 176 -358 286 -381 249z"/>
<path d="M3665 11472 c-80 -42 -330 -241 -318 -253 24 -24 137 38 273 150 41
34 103 75 137 91 34 16 64 33 67 38 2 4 -17 8 -44 8 -37 0 -66 -9 -115 -34z"/>
<path d="M8295 11474 c-147 -33 -236 -45 -312 -42 -70 2 -87 -1 -110 -18 -35
-26 -82 -41 -158 -49 -104 -12 -179 -50 -289 -144 l-100 -86 43 -3 c87 -6 234
53 410 167 52 33 110 64 129 67 20 4 70 2 111 -5 109 -16 250 -14 339 6 42 9
95 16 117 15 22 -1 114 -3 205 -5 158 -3 170 -5 280 -40 63 -21 178 -55 255
-77 198 -55 216 -63 329 -134 56 -35 153 -92 216 -126 183 -99 255 -156 321
-252 22 -31 76 -88 122 -126 117 -98 163 -151 263 -302 82 -123 89 -131 92
-102 4 39 2 42 -116 215 -108 157 -214 271 -342 368 -47 35 -129 105 -183 155
-115 108 -234 190 -364 251 -51 24 -222 86 -379 138 -265 88 -292 95 -366 95
-98 0 -292 20 -433 44 -11 2 -47 -2 -80 -10z"/>
<path d="M11185 11313 c23 -57 96 -158 181 -253 157 -175 188 -227 294 -490
60 -150 180 -368 203 -370 4 0 7 28 7 61 0 55 -6 72 -52 158 -28 53 -70 125
-93 161 -71 110 -125 215 -125 244 0 50 -28 94 -122 193 -51 54 -124 142 -161
195 -67 96 -107 138 -133 138 -12 0 -12 -6 1 -37z"/>
<path d="M2623 11267 c-97 -66 -175 -158 -171 -202 2 -27 -12 -44 -121 -150
-67 -66 -134 -139 -148 -163 -28 -47 -44 -104 -34 -120 4 -6 77 82 163 196 86
114 203 260 260 326 114 131 142 166 134 166 -3 0 -40 -24 -83 -53z"/>
<path d="M4125 11290 c-11 -12 -31 -20 -50 -20 -17 0 -39 -6 -49 -13 -16 -12
-16 -14 -2 -27 42 -34 126 0 126 50 0 35 -1 36 -25 10z"/>
<path d="M7730 11171 c-244 -80 -719 -334 -687 -367 20 -21 260 62 445 153 95
46 128 57 210 69 53 8 111 19 127 26 60 22 274 142 269 150 -3 5 -38 8 -77 7
-40 -1 -88 1 -107 4 -26 5 -73 -6 -180 -42z"/>
<path d="M3143 11072 c-31 -27 -55 -59 -59 -76 -7 -28 -5 -27 31 15 22 24 52
59 69 77 45 48 18 38 -41 -16z"/>
<path d="M3445 10968 c-15 -11 -47 -53 -72 -92 -56 -88 -97 -132 -147 -158
-50 -26 -77 -55 -141 -153 -45 -69 -52 -85 -47 -118 6 -51 19 -55 27 -9 9 56
28 80 153 193 72 65 131 128 160 173 36 54 61 78 107 106 40 24 61 43 63 58 3
20 -1 22 -36 22 -25 0 -49 -8 -67 -22z"/>
<path d="M11000 10664 c0 -23 19 -52 78 -118 58 -66 70 -91 103 -218 32 -122
31 -119 112 -247 73 -116 84 -141 102 -243 9 -55 29 -113 60 -177 33 -68 45
-105 44 -131 -2 -21 7 -56 23 -90 26 -56 58 -170 58 -208 0 -38 17 -32 34 11
9 23 16 46 16 50 0 3 -27 65 -60 137 -40 86 -60 141 -59 163 2 21 -9 49 -31
84 -26 43 -34 67 -41 134 -7 72 -14 91 -55 163 -100 170 -114 199 -114 248 0
80 -145 337 -250 443 -20 19 -20 19 -20 -1z"/>
<path d="M1902 10640 c-6 -14 -31 -50 -58 -80 -54 -63 -75 -107 -67 -138 8
-32 18 -27 63 30 67 84 96 154 80 193 -7 19 -8 19 -18 -5z"/>
<path d="M10427 10646 c5 -7 56 -82 114 -167 122 -177 263 -412 312 -520 44
-96 80 -208 108 -333 13 -62 36 -128 60 -175 37 -71 41 -87 74 -315 37 -262
62 -479 73 -651 l7 -110 31 53 31 54 -15 56 c-9 36 -15 117 -17 217 -2 115 -7
171 -18 200 -10 26 -13 57 -10 91 5 43 -2 74 -40 190 -25 77 -71 228 -101 336
-65 231 -102 320 -223 540 -50 90 -105 192 -123 228 -75 150 -183 289 -241
309 -23 8 -28 7 -22 -3z"/>
<path d="M10070 10562 c0 -6 17 -25 39 -44 21 -18 70 -81 109 -139 39 -58 84
-120 101 -137 30 -29 67 -49 77 -40 2 3 -36 65 -85 139 -89 134 -148 202 -186
212 -11 2 -28 8 -37 12 -10 4 -18 3 -18 -3z"/>
<path d="M2047 10531 c-39 -25 -59 -57 -52 -81 9 -28 26 -25 63 13 32 33 38
52 24 74 -6 9 -15 8 -35 -6z"/>
<path d="M9747 10464 c-29 -30 21 -98 69 -92 43 5 41 27 -4 45 -22 8 -44 24
-49 35 -4 11 -12 16 -16 12z"/>
<path d="M1893 10308 c-38 -41 -48 -61 -74 -144 -14 -46 -33 -79 -61 -110 -25
-27 -38 -50 -34 -59 3 -8 -4 -40 -16 -70 -18 -47 -19 -60 -9 -82 16 -35 24
-27 106 126 91 171 112 222 139 344 9 37 -12 35 -51 -5z"/>
<path d="M4215 10147 c-93 -31 -163 -90 -198 -167 -67 -144 28 -338 186 -381
23 -6 78 -9 122 -7 127 7 222 65 271 164 23 48 26 63 22 123 -9 121 -82 216
-197 256 -64 22 -159 27 -206 12z"/>
<path d="M10956 10095 c8 -22 39 -98 68 -170 29 -71 83 -221 121 -332 37 -112
71 -203 76 -203 14 0 10 113 -5 156 -7 22 -41 90 -74 152 -56 104 -60 117 -56
160 4 39 0 58 -29 117 -19 39 -53 90 -76 115 l-42 45 17 -40z"/>
<path d="M10606 10088 c9 -30 33 -77 54 -108 10 -14 30 -47 44 -74 l26 -49 0
40 c0 57 -26 125 -66 172 -40 46 -70 55 -58 19z"/>
<path d="M10480 10079 c0 -15 125 -320 148 -361 31 -55 42 -60 42 -18 0 40
-34 127 -83 214 -42 75 -107 175 -107 165z"/>
<path d="M11567 9933 c-24 -23 5 -115 68 -213 13 -19 26 -57 30 -85 9 -72 26
-135 35 -135 5 0 11 14 15 30 7 33 -67 273 -112 363 -25 50 -26 51 -36 40z"/>
<path d="M2308 9603 c-81 -158 -170 -326 -197 -372 -28 -46 -51 -92 -51 -101
0 -9 14 -29 31 -46 l31 -29 33 40 c19 22 52 76 74 120 45 91 195 410 236 502
l27 62 -19 56 -19 57 -146 -289z"/>
<path d="M3666 9763 c-12 -49 -32 -90 -73 -150 -69 -101 -79 -154 -39 -218 17
-29 26 -36 30 -25 101 272 127 355 120 394 -11 71 -20 71 -38 -1z"/>
<path d="M10796 9705 c-11 -29 -6 -56 14 -85 34 -48 47 -89 68 -215 24 -142
39 -187 52 -165 14 22 12 107 -4 167 -16 58 -105 294 -116 306 -4 5 -10 1 -14
-8z"/>
<path d="M2555 9581 c-3 -10 -24 -47 -46 -81 -22 -35 -49 -86 -60 -114 -10
-28 -39 -87 -64 -131 -77 -136 -95 -181 -130 -319 -41 -162 -44 -200 -20 -292
18 -69 18 -77 2 -200 -20 -155 -11 -221 42 -300 40 -60 38 -105 -8 -146 -26
-23 -28 -28 -15 -39 8 -7 24 -34 35 -60 20 -44 43 -67 53 -51 2 4 9 26 15 50
10 37 9 48 -8 88 -19 41 -19 48 -6 74 10 20 14 55 12 118 -2 79 1 94 20 120
l22 29 -28 34 c-24 29 -30 47 -36 114 -15 175 -7 224 43 261 12 9 13 17 4 44
-17 47 -15 71 9 96 17 18 19 25 8 41 -17 28 3 154 29 188 30 38 80 164 90 226
6 42 18 68 50 108 23 29 42 59 42 67 0 15 -37 94 -45 94 -2 0 -6 -9 -10 -19z"/>
<path d="M3750 9479 c-18 -46 -45 -121 -61 -167 l-28 -83 47 -72 46 -72 22
145 c11 80 28 170 37 202 21 70 21 67 -7 102 l-24 28 -32 -83z"/>
<path d="M10516 9538 c-22 -33 -17 -53 35 -133 24 -39 47 -93 63 -154 37 -137
91 -465 136 -824 36 -293 61 -416 85 -424 6 -1 24 8 40 21 l30 24 -27 134
c-15 73 -39 210 -53 303 -77 519 -132 739 -248 988 l-43 92 -18 -27z"/>
<path d="M3933 9313 c-33 -74 -62 -159 -92 -266 l-18 -68 42 -65 c23 -36 46
-65 51 -63 16 6 44 162 53 300 6 79 16 151 25 172 14 35 14 38 -4 47 -10 5
-21 10 -23 10 -2 0 -18 -30 -34 -67z"/>
<path d="M11411 9347 c-18 -34 -10 -113 20 -190 17 -46 24 -55 35 -46 20 17
17 80 -7 136 -11 26 -24 65 -27 87 l-7 39 -14 -26z"/>
<path d="M4055 9213 c-4 -71 -9 -210 -10 -310 -2 -175 -1 -185 21 -230 13 -25
24 -61 24 -79 0 -24 24 -71 91 -176 l91 -143 -7 50 c-3 28 -22 148 -41 268
-34 210 -35 219 -17 233 25 18 30 18 81 -12 62 -37 75 -72 61 -168 -11 -72
-10 -76 12 -108 22 -30 24 -41 21 -131 -2 -74 1 -109 14 -143 13 -34 15 -61
11 -119 l-7 -74 93 -145 c85 -133 93 -142 104 -122 17 30 16 50 -12 143 -36
124 -56 274 -53 393 3 97 4 103 16 75 8 -16 18 -70 23 -120 10 -97 31 -166 55
-186 13 -11 15 -44 13 -208 l-2 -196 54 -84 54 -84 7 34 c12 62 38 343 38 416
0 67 -2 73 -29 95 -52 42 -63 71 -72 185 -7 94 -16 132 -69 287 -51 151 -75
205 -152 338 -103 181 -148 287 -151 359 -2 46 -4 49 -28 49 -22 0 -30 -8 -47
-48 -36 -83 -38 -137 -8 -223 38 -111 34 -159 -14 -159 -64 0 -82 70 -52 203
15 66 18 96 10 117 -5 16 -12 50 -16 76 -7 45 -9 47 -52 60 -25 8 -46 14 -46
14 -1 0 -5 -57 -9 -127z"/>
<path d="M11247 9293 c-14 -13 -6 -56 14 -84 17 -24 24 -27 35 -18 19 16 18
38 -6 77 -20 32 -30 38 -43 25z"/>
<path d="M10954 9075 c-18 -44 -18 -154 0 -242 8 -37 17 -96 21 -130 4 -34 12
-81 19 -104 9 -29 10 -57 4 -88 -7 -35 -8 -411 -2 -411 1 0 13 18 27 39 24 35
26 47 25 132 -1 56 3 103 10 116 9 17 9 35 -3 86 -8 35 -21 151 -30 258 -14
180 -41 379 -51 379 -3 0 -12 -16 -20 -35z"/>
<path d="M11306 9059 c-11 -55 -7 -130 14 -254 11 -66 20 -124 20 -130 1 -5
14 15 29 44 26 51 27 57 15 88 -8 18 -14 67 -14 113 0 82 -14 134 -42 158 -13
10 -16 8 -22 -19z"/>
<path d="M4733 8401 l-42 -38 29 -22 c17 -12 45 -44 64 -72 32 -48 35 -50 45
-31 18 34 12 94 -14 150 -13 28 -28 52 -32 52 -4 -1 -27 -18 -50 -39z"/>
<path d="M8443 8067 c-41 -43 -65 -92 -61 -127 l3 -30 45 36 c25 20 57 42 72
48 l27 12 -28 47 -27 47 -31 -33z"/>
<path d="M4331 6743 c-7 -32 -26 -100 -43 -151 -28 -88 -29 -98 -18 -161 15
-89 6 -139 -85 -496 -82 -319 -105 -439 -104 -524 l1 -56 43 130 c134 403 315
1059 314 1140 0 19 -18 58 -48 103 l-48 73 -12 -58z"/>
<path d="M8379 5554 c-12 -20 -24 -60 -27 -88 l-5 -51 49 39 c27 22 50 40 51
41 1 0 -8 22 -22 48 l-23 47 -23 -36z"/>
<path d="M2070 3370 c-6 -11 -95 -243 -199 -517 -104 -274 -192 -506 -196
-515 -7 -16 2 -18 98 -18 l104 0 43 120 42 120 221 -2 220 -3 40 -117 39 -118
104 0 c57 0 104 3 104 8 0 4 -88 244 -197 535 l-196 527 -108 0 c-98 0 -109
-2 -119 -20z m198 -430 c40 -116 72 -215 72 -220 0 -6 -61 -10 -160 -10 -88 0
-160 4 -160 8 0 8 119 350 141 405 6 15 17 27 23 27 7 0 45 -94 84 -210z"/>
<path d="M2820 2855 l0 -535 90 0 90 0 0 535 0 535 -90 0 -90 0 0 -535z"/>
<path d="M7780 3315 l0 -75 90 0 90 0 0 75 0 75 -90 0 -90 0 0 -75z"/>
<path d="M9007 3383 c-4 -3 -7 -37 -7 -75 l0 -68 95 0 95 0 0 75 0 75 -88 0
c-49 0 -92 -3 -95 -7z"/>
<path d="M6250 3343 c-97 -35 -349 -166 -432 -225 l-27 -19 39 -35 c22 -20 44
-33 50 -29 5 3 10 0 10 -7 0 -32 177 -328 196 -328 14 0 92 61 98 76 4 9 -1
27 -9 40 -13 21 -23 24 -76 24 l-60 0 7 38 c4 20 11 48 16 61 9 26 0 45 -58
118 -19 23 -34 44 -34 46 0 7 176 147 184 147 3 0 6 -21 6 -47 0 -27 5 -65 11
-86 l10 -37 31 16 c17 9 68 22 112 30 79 14 92 21 117 66 8 14 1 24 -33 49
-41 30 -101 61 -142 73 -15 5 -16 9 -6 21 13 16 13 16 -10 8z"/>
<path d="M5490 3241 c-47 -20 -120 -55 -163 -77 l-78 -40 42 -27 42 -28 133
101 c74 56 134 103 134 106 0 10 -31 0 -110 -35z"/>
<path d="M3417 3089 c-109 -26 -194 -100 -212 -186 l-7 -33 96 0 c87 0 96 2
96 19 0 27 39 71 76 87 72 30 184 11 218 -37 20 -30 21 -98 1 -127 -18 -25
-89 -48 -180 -57 -96 -11 -197 -35 -238 -58 -59 -33 -91 -95 -91 -176 1 -143
90 -221 254 -221 90 0 185 30 237 75 l41 35 7 -45 6 -45 94 0 93 0 -9 38 c-5
20 -9 159 -9 307 0 243 -2 274 -19 312 -23 50 -77 88 -152 109 -60 15 -241 17
-302 3z m267 -577 c-25 -67 -78 -97 -169 -97 -107 0 -155 36 -155 115 0 79 54
119 190 140 41 6 91 19 110 28 l35 17 3 -80 c2 -56 -2 -93 -14 -123z"/>
<path d="M4451 3086 c-44 -16 -106 -69 -137 -117 -13 -21 -29 -39 -34 -39 -6
0 -10 32 -10 75 l0 75 -90 0 -90 0 0 -380 0 -380 94 0 95 0 3 228 c3 210 5
230 25 267 42 80 105 115 203 115 l60 0 0 85 0 85 -42 -1 c-24 0 -58 -6 -77
-13z"/>
<path d="M5012 3074 c-29 -14 -67 -43 -85 -65 -46 -53 -57 -50 -57 16 l0 55
-85 0 -85 0 0 -380 0 -380 89 0 90 0 3 258 c3 253 3 258 28 301 31 54 78 81
143 81 60 0 102 -21 124 -63 16 -28 18 -67 21 -304 l4 -273 89 0 89 0 0 230
c0 273 7 320 60 373 36 35 41 37 104 37 61 0 69 -3 101 -32 48 -44 55 -94 55
-380 l0 -228 91 0 90 0 -3 308 c-3 295 -4 309 -25 349 -46 85 -121 123 -245
123 -81 0 -151 -33 -207 -96 l-39 -45 -24 43 c-51 94 -211 129 -326 72z"/>
<path d="M6297 3089 c-109 -26 -194 -100 -212 -186 l-7 -33 96 0 c87 0 96 2
96 19 0 27 39 71 76 87 72 30 184 11 218 -37 20 -30 21 -98 1 -127 -18 -25
-89 -48 -180 -57 -96 -11 -197 -35 -238 -58 -59 -33 -91 -95 -91 -176 1 -143
90 -221 254 -221 90 0 185 30 237 75 l41 35 7 -45 6 -45 87 0 87 0 -3 307 c-3
273 -6 313 -22 350 -22 50 -76 88 -151 109 -60 15 -241 17 -302 3z m263 -585
c-26 -54 -73 -84 -142 -91 -109 -11 -178 33 -178 115 0 81 53 121 190 142 41
6 91 19 110 28 l35 17 3 -84 c2 -68 -1 -91 -18 -127z"/>
<path d="M8312 3080 c-111 -37 -172 -125 -160 -234 11 -96 70 -136 271 -185
181 -44 227 -71 227 -135 0 -138 -282 -157 -331 -21 l-13 35 -87 0 -87 0 7
-32 c19 -81 86 -153 170 -183 63 -23 228 -31 299 -15 125 27 201 94 222 195
21 102 -22 182 -121 225 -27 11 -98 32 -158 45 -131 30 -159 40 -188 67 -33
31 -31 87 3 119 22 21 35 24 102 24 93 0 129 -16 157 -68 l20 -37 83 0 c93 0
96 4 63 75 -24 52 -64 88 -126 116 -74 33 -263 38 -353 9z"/>
<path d="M9633 3086 c-132 -43 -222 -145 -252 -284 -44 -207 48 -406 218 -474
47 -19 75 -23 171 -23 110 0 118 1 182 33 81 40 148 110 180 190 18 48 22 76
22 172 0 96 -4 124 -22 172 -32 80 -99 150 -180 190 -60 30 -75 33 -172 35
-68 2 -120 -2 -147 -11z m232 -139 c83 -47 126 -177 105 -314 -22 -138 -97
-208 -216 -201 -127 8 -186 83 -193 247 -3 103 7 156 44 212 49 76 177 103
260 56z"/>
<path d="M10670 3083 c-26 -10 -63 -35 -92 -65 -25 -26 -51 -48 -57 -48 -7 0
-11 23 -11 55 l0 55 -85 0 -85 0 0 -380 0 -380 89 0 89 0 4 253 c3 247 4 254
28 301 32 62 74 86 153 86 78 0 114 -20 140 -78 19 -43 21 -71 25 -304 l5
-258 89 0 89 0 -3 298 c-3 255 -7 304 -22 345 -21 55 -78 108 -135 125 -53 16
-167 14 -221 -5z"/>
<path d="M6910 3073 c0 -5 57 -176 126 -380 l127 -373 111 0 111 0 125 371
c69 204 127 375 128 380 3 6 -33 9 -88 7 l-92 -3 -82 -265 c-56 -183 -86 -266
-97 -268 -11 -2 -34 59 -99 268 l-83 270 -94 0 c-51 0 -93 -3 -93 -7z"/>
<path d="M7780 2700 l0 -380 90 0 90 0 0 380 0 380 -90 0 -90 0 0 -380z"/>
<path d="M9000 2700 l0 -380 95 0 95 0 0 380 0 380 -95 0 -95 0 0 -380z"/>
<path d="M4984 2911 c-17 -10 -38 -34 -47 -54 -17 -36 -23 -101 -9 -95 16 6
191 143 192 149 0 4 -10 9 -22 13 -42 11 -83 6 -114 -13z"/>
<path d="M5480 2895 c-24 -18 -47 -41 -51 -52 -4 -10 -8 -98 -8 -196 l-1 -178
30 -59 30 -60 46 0 c42 0 45 1 38 23 -4 12 -9 29 -11 37 -3 8 7 -4 22 -27 21
-35 32 -43 56 -43 l29 0 0 249 c0 270 -5 303 -51 326 -43 23 -80 17 -129 -20z
m45 -360 c13 -55 22 -101 21 -103 -2 -1 -14 25 -26 58 -12 33 -38 86 -57 117
l-34 57 28 22 28 22 8 -36 c5 -20 19 -82 32 -137z"/>
<path d="M4480 2656 l-165 -113 -3 -86 -3 -87 66 0 66 0 109 88 109 87 1 113
c0 61 -3 112 -7 112 -5 -1 -82 -52 -173 -114z"/>
<path d="M5920 2663 c0 -62 5 -91 27 -142 l27 -63 23 28 c37 47 31 94 -24 180
-25 41 -48 74 -50 74 -2 0 -3 -35 -3 -77z"/>
<path d="M5033 2557 l-113 -91 0 -53 0 -53 75 0 c49 0 75 -4 75 -11 0 -8 4 -8
15 1 8 7 26 9 44 5 l29 -6 1 150 c1 83 -2 151 -6 150 -5 0 -59 -41 -120 -92z"/>
<path d="M5923 2415 c0 -22 2 -30 4 -17 2 12 2 30 0 40 -3 9 -5 -1 -4 -23z"/>
<path d="M4920 2273 c0 -54 6 -63 28 -41 17 17 15 43 -8 69 l-19 24 -1 -52z"/>
<path d="M5294 2252 c8 -16 23 -35 32 -43 14 -11 12 -4 -6 29 -26 46 -49 59
-26 14z"/>
<path d="M4834 2234 c3 -9 6 -25 6 -37 0 -12 5 -29 10 -37 8 -13 14 -11 37 13
l28 28 -28 25 c-32 28 -62 33 -53 8z"/>
<path d="M5366 2085 c-4 -14 -2 -33 3 -43 8 -13 10 -8 11 26 0 48 -5 54 -14
17z"/>
<path d="M3811 2089 c-138 -23 -255 -115 -287 -224 -30 -105 -3 -209 72 -275
55 -48 120 -74 294 -120 93 -24 173 -52 200 -68 82 -50 101 -134 44 -201 -36
-43 -102 -65 -199 -65 -71 0 -90 4 -141 30 -60 30 -99 74 -110 123 -3 14 -7
32 -10 39 -2 8 -31 12 -100 12 l-97 0 6 -55 c19 -181 200 -305 447 -305 263 0
434 128 434 324 1 90 -16 138 -67 194 -56 60 -111 86 -287 132 -255 68 -284
84 -296 161 -13 84 69 149 186 149 121 0 185 -34 216 -115 l17 -45 98 0 c113
0 111 -3 83 89 -22 74 -107 160 -186 189 -105 39 -208 49 -317 31z"/>
<path d="M4920 2090 c-214 -40 -368 -198 -411 -424 -25 -134 0 -320 58 -429
41 -77 136 -168 213 -204 185 -88 382 -65 499 56 51 54 61 60 61 36 0 -7 5
-37 11 -65 l11 -50 59 0 59 0 0 280 0 280 -210 0 -210 0 0 -75 0 -75 121 0
122 0 -7 -42 c-4 -24 -18 -67 -32 -96 -46 -95 -140 -139 -273 -130 -194 14
-304 192 -280 453 13 138 74 241 173 292 43 23 64 27 131 27 70 1 87 -3 132
-28 51 -28 92 -75 112 -128 10 -28 11 -28 107 -28 l97 0 -7 41 c-20 123 -130
241 -270 289 -68 23 -199 33 -266 20z"/>
<path d="M6592 2085 c-121 -27 -213 -91 -257 -180 -26 -53 -28 -195 -3 -240
47 -86 121 -130 306 -181 197 -55 221 -63 262 -90 80 -53 82 -152 5 -216 -49
-41 -188 -55 -279 -29 -68 20 -131 81 -146 144 l-12 47 -100 0 -100 0 7 -47
c14 -99 81 -197 170 -249 134 -78 381 -85 530 -14 120 57 176 138 183 265 5
98 -19 165 -79 219 -58 53 -105 73 -290 122 -182 47 -238 70 -263 106 -38 53
-6 142 64 179 41 22 150 26 213 7 52 -16 104 -68 113 -113 l6 -35 103 0 104 0
-6 38 c-8 61 -51 139 -100 181 -95 84 -275 120 -431 86z"/>
<path d="M7592 2085 c-89 -20 -149 -51 -204 -107 -60 -61 -82 -126 -76 -217
11 -147 85 -210 326 -277 197 -55 221 -63 262 -90 80 -53 82 -152 5 -216 -49
-41 -188 -55 -279 -29 -68 20 -131 81 -146 144 l-12 47 -100 0 -100 0 7 -47
c14 -99 81 -197 170 -249 134 -78 381 -85 530 -14 120 57 176 138 183 265 5
98 -19 165 -79 219 -58 53 -105 73 -290 122 -182 47 -238 70 -263 106 -38 54
-5 146 64 180 42 21 152 24 213 6 52 -16 104 -68 113 -113 l6 -35 103 0 104 0
-6 38 c-8 61 -51 139 -100 181 -95 84 -275 120 -431 86z"/>
<path d="M8250 1985 l0 -85 165 0 165 0 0 -445 0 -445 105 0 105 0 0 445 0
445 165 0 165 0 0 85 0 85 -435 0 -435 0 0 -85z"/>
<path d="M6704 1895 c27 -71 36 -125 27 -164 -9 -40 -8 -41 23 -49 17 -5 33
-8 35 -6 2 2 9 31 16 65 13 60 12 65 -10 110 -15 29 -33 49 -47 53 -38 10 -51
7 -44 -9z"/>
<path d="M4480 1874 c0 -6 20 -46 26 -53 3 -3 10 4 18 14 12 17 12 21 -3 32
-17 13 -41 17 -41 7z"/>
<path d="M4306 1718 c3 -13 12 -33 18 -46 l12 -23 19 21 c18 20 18 21 -5 45
-30 32 -54 33 -44 3z"/>
<path d="M5690 1410 l0 -80 215 0 215 0 0 80 0 80 -215 0 -215 0 0 -80z"/>
<path d="M6006 1145 c-3 -9 0 -15 9 -15 16 0 20 16 6 24 -5 3 -11 -1 -15 -9z"/>
</g>
</svg>
